<svg xmlns="http://www.w3.org/2000/svg" xmlns:xlink="http://www.w3.org/1999/xlink" width="500" zoomAndPan="magnify" viewBox="0 0 375 374.999991" height="500" preserveAspectRatio="xMidYMid meet" version="1.0"><defs><g/><clipPath id="3f8e4d2c1a"><path d="M 50 10.664062 L 325 10.664062 L 325 297.164062 L 50 297.164062 Z M 50 10.664062 " clip-rule="nonzero"/></clipPath><clipPath id="a0798f32d4"><path d="M 7.429688 130 L 39 130 L 39 230 L 7.429688 230 Z M 7.429688 130 " clip-rule="nonzero"/></clipPath><clipPath id="2d4fd74c04"><path d="M 336 130 L 367.429688 130 L 367.429688 230 L 336 230 Z M 336 130 " clip-rule="nonzero"/></clipPath></defs><g fill="#ffffff" fill-opacity="1"><g transform="translate(108.615422, 348.567868)"><g><path d="M 17.484375 0.609375 C 14.410156 0.609375 11.382812 0.257812 8.40625 -0.4375 C 5.425781 -1.132812 3.03125 -2.050781 1.21875 -3.1875 L 5.078125 -12 C 6.753906 -10.957031 8.742188 -10.128906 11.046875 -9.515625 C 13.359375 -8.910156 15.640625 -8.609375 17.890625 -8.609375 C 19.972656 -8.609375 21.453125 -8.820312 22.328125 -9.25 C 23.210938 -9.675781 23.65625 -10.300781 23.65625 -11.125 C 23.65625 -11.9375 23.125 -12.507812 22.0625 -12.84375 C 21 -13.1875 19.316406 -13.515625 17.015625 -13.828125 C 14.078125 -14.191406 11.578125 -14.664062 9.515625 -15.25 C 7.460938 -15.84375 5.691406 -16.925781 4.203125 -18.5 C 2.710938 -20.082031 1.96875 -22.300781 1.96875 -25.15625 C 1.96875 -27.5 2.664062 -29.585938 4.0625 -31.421875 C 5.46875 -33.253906 7.515625 -34.703125 10.203125 -35.765625 C 12.890625 -36.828125 16.109375 -37.359375 19.859375 -37.359375 C 22.523438 -37.359375 25.171875 -37.085938 27.796875 -36.546875 C 30.421875 -36.003906 32.613281 -35.234375 34.375 -34.234375 L 30.515625 -25.484375 C 27.253906 -27.296875 23.726562 -28.203125 19.9375 -28.203125 C 17.894531 -28.203125 16.398438 -27.960938 15.453125 -27.484375 C 14.503906 -27.015625 14.03125 -26.394531 14.03125 -25.625 C 14.03125 -24.769531 14.550781 -24.171875 15.59375 -23.828125 C 16.632812 -23.492188 18.351562 -23.144531 20.75 -22.78125 C 23.769531 -22.332031 26.273438 -21.8125 28.265625 -21.21875 C 30.253906 -20.632812 31.984375 -19.5625 33.453125 -18 C 34.921875 -16.4375 35.65625 -14.253906 35.65625 -11.453125 C 35.65625 -9.148438 34.953125 -7.082031 33.546875 -5.25 C 32.148438 -3.425781 30.082031 -1.992188 27.34375 -0.953125 C 24.613281 0.0859375 21.328125 0.609375 17.484375 0.609375 Z M 17.484375 0.609375 "/></g></g></g><g fill="#ffffff" fill-opacity="1"><g transform="translate(140.138526, 348.567868)"><g><path d="M 52 -37.359375 C 56.519531 -37.359375 60.125 -36 62.8125 -33.28125 C 65.5 -30.570312 66.84375 -26.484375 66.84375 -21.015625 L 66.84375 0 L 53.96875 0 L 53.96875 -18.921875 C 53.96875 -21.492188 53.476562 -23.390625 52.5 -24.609375 C 51.53125 -25.828125 50.164062 -26.4375 48.40625 -26.4375 C 46.457031 -26.4375 44.894531 -25.757812 43.71875 -24.40625 C 42.550781 -23.050781 41.96875 -20.992188 41.96875 -18.234375 L 41.96875 0 L 29.078125 0 L 29.078125 -18.921875 C 29.078125 -23.929688 27.226562 -26.4375 23.53125 -26.4375 C 21.539062 -26.4375 19.957031 -25.757812 18.78125 -24.40625 C 17.601562 -23.050781 17.015625 -20.992188 17.015625 -18.234375 L 17.015625 0 L 4.140625 0 L 4.140625 -36.75 L 16.40625 -36.75 L 16.40625 -32.875 C 17.757812 -34.375 19.375 -35.492188 21.25 -36.234375 C 23.125 -36.984375 25.171875 -37.359375 27.390625 -37.359375 C 29.960938 -37.359375 32.265625 -36.882812 34.296875 -35.9375 C 36.335938 -34.988281 37.988281 -33.539062 39.25 -31.59375 C 40.695312 -33.445312 42.523438 -34.867188 44.734375 -35.859375 C 46.953125 -36.859375 49.375 -37.359375 52 -37.359375 Z M 52 -37.359375 "/></g></g></g><g fill="#ffffff" fill-opacity="1"><g transform="translate(205.422544, 348.567868)"><g><path d="M 19.796875 -37.359375 C 25.898438 -37.359375 30.554688 -35.96875 33.765625 -33.1875 C 36.972656 -30.40625 38.578125 -26.144531 38.578125 -20.40625 L 38.578125 0 L 26.578125 0 L 26.578125 -4.75 C 24.722656 -1.175781 21.109375 0.609375 15.734375 0.609375 C 12.878906 0.609375 10.410156 0.113281 8.328125 -0.875 C 6.253906 -1.875 4.6875 -3.21875 3.625 -4.90625 C 2.5625 -6.601562 2.03125 -8.539062 2.03125 -10.71875 C 2.03125 -14.195312 3.363281 -16.894531 6.03125 -18.8125 C 8.695312 -20.726562 12.8125 -21.6875 18.375 -21.6875 L 25.6875 -21.6875 C 25.46875 -25.582031 22.867188 -27.53125 17.890625 -27.53125 C 16.128906 -27.53125 14.34375 -27.242188 12.53125 -26.671875 C 10.726562 -26.109375 9.195312 -25.332031 7.9375 -24.34375 L 3.59375 -33.078125 C 5.625 -34.441406 8.097656 -35.492188 11.015625 -36.234375 C 13.929688 -36.984375 16.859375 -37.359375 19.796875 -37.359375 Z M 19.328125 -7.53125 C 20.816406 -7.53125 22.125 -7.890625 23.25 -8.609375 C 24.382812 -9.328125 25.195312 -10.390625 25.6875 -11.796875 L 25.6875 -14.984375 L 20.140625 -14.984375 C 16.390625 -14.984375 14.515625 -13.738281 14.515625 -11.25 C 14.515625 -10.125 14.941406 -9.222656 15.796875 -8.546875 C 16.648438 -7.867188 17.828125 -7.53125 19.328125 -7.53125 Z M 19.328125 -7.53125 "/></g></g></g><g fill="#ffffff" fill-opacity="1"><g transform="translate(242.436878, 348.567868)"><g><path d="M 16.40625 -32.34375 C 17.71875 -34.007812 19.421875 -35.257812 21.515625 -36.09375 C 23.617188 -36.9375 26.03125 -37.359375 28.75 -37.359375 L 28.75 -25.765625 C 27.570312 -25.898438 26.597656 -25.96875 25.828125 -25.96875 C 23.066406 -25.96875 20.90625 -25.21875 19.34375 -23.71875 C 17.789062 -22.226562 17.015625 -19.945312 17.015625 -16.875 L 17.015625 0 L 4.140625 0 L 4.140625 -36.75 L 16.40625 -36.75 Z M 16.40625 -32.34375 "/></g></g></g><g fill="#ffffff" fill-opacity="1"><g transform="translate(266.909506, 348.567868)"><g><path d="M 29.484375 -1.484375 C 28.398438 -0.804688 27.078125 -0.289062 25.515625 0.0625 C 23.960938 0.425781 22.304688 0.609375 20.546875 0.609375 C 15.753906 0.609375 12.066406 -0.5625 9.484375 -2.90625 C 6.910156 -5.257812 5.625 -8.765625 5.625 -13.421875 L 5.625 -25.765625 L 0.265625 -25.765625 L 0.265625 -35.390625 L 5.625 -35.390625 L 5.625 -44.953125 L 18.515625 -44.953125 L 18.515625 -35.390625 L 26.921875 -35.390625 L 26.921875 -25.765625 L 18.515625 -25.765625 L 18.515625 -13.5625 C 18.515625 -12.25 18.863281 -11.21875 19.5625 -10.46875 C 20.257812 -9.726562 21.195312 -9.359375 22.375 -9.359375 C 23.863281 -9.359375 25.175781 -9.742188 26.3125 -10.515625 Z M 29.484375 -1.484375 "/></g></g></g><g clip-path="url(#3f8e4d2c1a)"><path fill="#ffffff" d="M 263.554688 297.402344 L 111.230469 297.402344 C 77.683594 297.402344 50.46875 270.1875 50.46875 236.851562 L 50.46875 138.113281 C 50.46875 104.566406 77.683594 77.351562 111.230469 77.351562 L 180.851562 77.351562 L 181.0625 54.144531 C 171.992188 51.402344 165.242188 42.960938 165.242188 32.835938 C 165.242188 20.597656 175.367188 10.683594 187.605469 10.683594 C 199.839844 10.683594 209.96875 20.597656 209.96875 32.835938 C 209.96875 42.960938 203.003906 51.613281 193.722656 54.355469 L 193.511719 77.351562 L 263.554688 77.351562 C 296.890625 77.351562 324.109375 104.566406 324.109375 138.113281 L 324.109375 237.0625 C 324.109375 270.398438 296.890625 297.402344 263.554688 297.402344 Z M 130.21875 201.617188 C 112.285156 201.617188 98.148438 187.484375 98.148438 169.761719 C 98.148438 151.828125 112.285156 137.691406 130.21875 137.691406 C 148.152344 137.691406 162.074219 151.828125 162.074219 169.761719 C 162.074219 187.484375 148.152344 201.617188 130.21875 201.617188 Z M 130.21875 150.351562 C 119.246094 150.351562 110.808594 158.789062 110.808594 169.761719 C 110.808594 180.519531 119.246094 188.960938 130.21875 188.960938 C 140.976562 188.960938 149.628906 180.519531 149.628906 169.761719 C 149.628906 158.789062 140.976562 150.351562 130.21875 150.351562 Z M 244.78125 200.351562 C 226.847656 200.351562 212.5 186.003906 212.5 168.285156 C 212.5 150.5625 226.847656 136.214844 244.78125 136.214844 C 262.289062 136.214844 276.636719 150.5625 276.636719 168.285156 C 276.636719 186.003906 262.289062 200.351562 244.78125 200.351562 Z M 244.78125 148.875 C 233.808594 148.875 225.160156 157.734375 225.160156 168.285156 C 225.160156 179.042969 233.808594 187.90625 244.78125 187.90625 C 255.539062 187.90625 263.980469 179.042969 263.980469 168.285156 C 263.980469 157.3125 255.328125 148.875 244.78125 148.875 Z M 185.074219 238.75 C 173.046875 238.75 162.496094 233.054688 156.589844 227.992188 C 153.847656 225.667969 153.636719 221.449219 155.957031 219.128906 C 158.277344 216.597656 162.074219 216.175781 164.820312 218.707031 C 166.71875 220.394531 185.074219 234.953125 202.582031 218.917969 C 205.117188 216.597656 208.914062 216.597656 211.65625 219.128906 C 213.976562 221.871094 213.976562 225.667969 211.445312 228.203125 C 202.582031 235.796875 193.511719 238.75 185.074219 238.75 Z M 185.074219 238.75 " fill-opacity="1" fill-rule="evenodd"/></g><g clip-path="url(#a0798f32d4)"><path fill="#ffffff" d="M 37.808594 229.679688 L 35.277344 229.679688 C 20.085938 229.679688 7.429688 217.230469 7.429688 201.828125 L 7.429688 158.789062 C 7.429688 143.386719 20.085938 130.730469 35.277344 130.730469 L 38.230469 130.730469 C 38.019531 133.050781 37.808594 135.582031 37.808594 138.113281 Z M 37.808594 229.679688 " fill-opacity="1" fill-rule="evenodd"/></g><g clip-path="url(#2d4fd74c04)"><path fill="#ffffff" d="M 339.296875 229.679688 L 336.765625 229.679688 L 336.765625 138.113281 C 336.765625 135.371094 336.554688 132.839844 336.34375 130.519531 L 339.296875 130.519531 C 354.910156 130.519531 367.570312 142.964844 367.570312 158.578125 L 367.570312 201.828125 C 367.570312 217.441406 354.910156 229.679688 339.296875 229.679688 Z M 339.296875 229.679688 " fill-opacity="1" fill-rule="evenodd"/></g></svg>