<svg xmlns="http://www.w3.org/2000/svg" xmlns:xlink="http://www.w3.org/1999/xlink" width="500" zoomAndPan="magnify" viewBox="0 0 375 374.999991" height="500" preserveAspectRatio="xMidYMid meet" version="1.0"><defs><clipPath id="1923d30146"><path d="M 0 0 L 370.5 0 L 370.5 370.5 L 0 370.5 Z M 0 0 " clip-rule="nonzero"/></clipPath></defs><g clip-path="url(#1923d30146)"><path fill="#ffffff" d="M 185.148438 151.183594 C 191.882812 151.183594 198.160156 153.15625 203.425781 156.523438 L 246.605469 111.546875 C 242.734375 106.027344 240.480469 99.320312 240.480469 92.082031 C 240.480469 77.984375 249.0625 65.910156 261.285156 60.773438 L 257.640625 42.800781 C 256.753906 42.472656 255.871094 42.09375 254.984375 41.6875 C 239.367188 34.726562 229.519531 22.753906 233.011719 14.933594 C 236.480469 7.136719 251.972656 6.453125 267.589844 13.414062 C 283.207031 20.375 293.050781 32.371094 289.558594 40.167969 C 287.382812 45.054688 280.523438 47.15625 271.867188 46.34375 L 274.269531 58.140625 L 274.421875 58.140625 C 293.179688 58.140625 308.390625 73.324219 308.390625 92.082031 C 308.390625 110.835938 293.179688 126.050781 274.421875 126.050781 C 267.691406 126.050781 261.4375 124.074219 256.148438 120.707031 L 212.992188 165.710938 C 216.839844 171.203125 219.09375 177.910156 219.09375 185.148438 C 219.09375 192.390625 216.839844 199.097656 212.992188 204.589844 L 256.148438 249.59375 C 261.4375 246.199219 267.691406 244.25 274.421875 244.25 C 293.179688 244.25 308.390625 259.464844 308.390625 278.195312 C 308.390625 296.949219 293.179688 312.160156 274.421875 312.160156 L 274.269531 312.160156 L 271.867188 323.957031 C 280.523438 323.144531 287.382812 325.246094 289.558594 330.105469 C 293.050781 337.929688 283.207031 349.898438 267.589844 356.886719 C 251.972656 363.847656 236.480469 363.164062 233.011719 355.367188 C 229.519531 347.546875 239.367188 335.574219 254.984375 328.589844 C 255.871094 328.207031 256.753906 327.828125 257.640625 327.472656 L 261.285156 309.527344 C 249.0625 304.390625 240.480469 292.292969 240.480469 278.195312 C 240.480469 270.980469 242.734375 264.273438 246.605469 258.753906 L 203.425781 213.75 C 198.160156 217.144531 191.882812 219.09375 185.148438 219.09375 C 178.417969 219.09375 172.140625 217.144531 166.875 213.75 L 123.695312 258.753906 C 127.542969 264.273438 129.820312 270.980469 129.820312 278.195312 C 129.820312 292.292969 121.214844 304.390625 108.988281 309.527344 L 112.660156 327.472656 C 113.546875 327.828125 114.429688 328.207031 115.316406 328.589844 C 130.933594 335.574219 140.78125 347.546875 137.289062 355.367188 C 133.792969 363.164062 118.328125 363.847656 102.6875 356.886719 C 87.070312 349.898438 77.25 337.929688 80.71875 330.105469 C 82.894531 325.246094 89.777344 323.144531 98.433594 323.957031 L 96.03125 312.160156 L 95.851562 312.160156 C 77.121094 312.160156 61.910156 296.949219 61.910156 278.195312 C 61.910156 259.464844 77.121094 244.25 95.851562 244.25 C 102.585938 244.25 108.863281 246.199219 114.152344 249.59375 L 157.308594 204.589844 C 153.460938 199.097656 151.183594 192.390625 151.183594 185.148438 C 151.183594 177.910156 153.460938 171.203125 157.308594 165.710938 L 114.152344 120.707031 C 108.863281 124.074219 102.585938 126.050781 95.851562 126.050781 C 77.121094 126.050781 61.910156 110.835938 61.910156 92.082031 C 61.910156 73.324219 77.121094 58.140625 95.851562 58.140625 L 96.03125 58.140625 L 98.433594 46.34375 C 89.777344 47.15625 82.894531 45.054688 80.71875 40.167969 C 77.25 32.371094 87.070312 20.375 102.6875 13.414062 C 118.328125 6.453125 133.792969 7.136719 137.289062 14.933594 C 140.78125 22.753906 130.933594 34.726562 115.316406 41.6875 C 114.429688 42.09375 113.546875 42.472656 112.660156 42.800781 L 108.988281 60.773438 C 121.214844 65.910156 129.820312 77.984375 129.820312 92.082031 C 129.820312 99.320312 127.542969 106.027344 123.695312 111.546875 L 166.875 156.523438 C 172.140625 153.15625 178.417969 151.183594 185.148438 151.183594 Z M 301.582031 205.527344 L 335.5 243.316406 C 342.003906 234.859375 349.75 230.507812 355.367188 233.011719 C 363.164062 236.480469 363.847656 251.972656 356.886719 267.589844 C 349.898438 283.207031 337.929688 293.050781 330.105469 289.558594 C 322.363281 286.117188 321.628906 270.804688 328.460938 255.289062 L 291.761719 214.359375 C 286.671875 217.371094 280.75 219.09375 274.421875 219.09375 C 255.691406 219.09375 240.480469 203.90625 240.480469 185.148438 C 240.480469 166.394531 255.691406 151.183594 274.421875 151.183594 C 280.75 151.183594 286.671875 152.929688 291.761719 155.941406 L 328.460938 115.011719 C 321.628906 99.496094 322.363281 84.183594 330.105469 80.71875 C 337.929688 77.25 349.898438 87.070312 356.886719 102.6875 C 363.847656 118.328125 363.164062 133.792969 355.367188 137.289062 C 349.75 139.792969 342.003906 135.441406 335.5 126.984375 L 301.582031 164.773438 C 305.859375 170.445312 308.390625 177.507812 308.390625 185.148438 C 308.390625 192.792969 305.859375 199.855469 301.582031 205.527344 Z M 78.539062 214.359375 L 41.839844 255.289062 C 48.648438 270.804688 47.9375 286.117188 40.167969 289.558594 C 32.371094 293.050781 20.375 283.207031 13.414062 267.589844 C 6.453125 251.972656 7.136719 236.480469 14.933594 233.011719 C 20.550781 230.507812 28.296875 234.859375 34.800781 243.316406 L 68.695312 205.527344 C 64.441406 199.855469 61.910156 192.792969 61.910156 185.148438 C 61.910156 177.507812 64.441406 170.445312 68.695312 164.773438 L 34.800781 126.984375 C 28.296875 135.441406 20.550781 139.792969 14.933594 137.289062 C 7.136719 133.792969 6.453125 118.328125 13.414062 102.6875 C 20.375 87.070312 32.371094 77.25 40.167969 80.71875 C 47.9375 84.183594 48.648438 99.496094 41.839844 115.011719 L 78.539062 155.941406 C 83.601562 152.929688 89.523438 151.183594 95.851562 151.183594 C 114.609375 151.183594 129.820312 166.394531 129.820312 185.148438 C 129.820312 203.90625 114.609375 219.09375 95.851562 219.09375 C 89.523438 219.09375 83.601562 217.371094 78.539062 214.359375 Z M 185.148438 312.160156 C 203.90625 312.160156 219.09375 296.949219 219.09375 278.195312 C 219.09375 259.464844 203.90625 244.25 185.148438 244.25 C 166.394531 244.25 151.183594 259.464844 151.183594 278.195312 C 151.183594 296.949219 166.394531 312.160156 185.148438 312.160156 Z M 0 185.148438 C 0 166.394531 9.289062 151.183594 20.730469 151.183594 C 32.195312 151.183594 41.484375 166.394531 41.484375 185.148438 C 41.484375 203.90625 32.195312 219.09375 20.730469 219.09375 C 9.289062 219.09375 0 203.90625 0 185.148438 Z M 185.148438 370.300781 C 166.394531 370.300781 151.183594 361.011719 151.183594 349.546875 C 151.183594 338.105469 166.394531 328.816406 185.148438 328.816406 C 203.90625 328.816406 219.09375 338.105469 219.09375 349.546875 C 219.09375 361.011719 203.90625 370.300781 185.148438 370.300781 Z M 370.300781 185.148438 C 370.300781 203.90625 361.011719 219.09375 349.546875 219.09375 C 338.105469 219.09375 328.816406 203.90625 328.816406 185.148438 C 328.816406 166.394531 338.105469 151.183594 349.546875 151.183594 C 361.011719 151.183594 370.300781 166.394531 370.300781 185.148438 Z M 185.148438 0 C 203.90625 0 219.09375 9.289062 219.09375 20.730469 C 219.09375 32.195312 203.90625 41.484375 185.148438 41.484375 C 166.394531 41.484375 151.183594 32.195312 151.183594 20.730469 C 151.183594 9.289062 166.394531 0 185.148438 0 Z M 185.148438 58.140625 C 203.90625 58.140625 219.09375 73.324219 219.09375 92.082031 C 219.09375 110.835938 203.90625 126.050781 185.148438 126.050781 C 166.394531 126.050781 151.183594 110.835938 151.183594 92.082031 C 151.183594 73.324219 166.394531 58.140625 185.148438 58.140625 Z M 185.148438 58.140625 " fill-opacity="1" fill-rule="evenodd"/></g></svg>