<svg xmlns="http://www.w3.org/2000/svg" xmlns:xlink="http://www.w3.org/1999/xlink" width="500" zoomAndPan="magnify" viewBox="0 0 375 374.999991" height="500" preserveAspectRatio="xMidYMid meet" version="1.0"><defs><g/><clipPath id="cf2e1a46f3"><path d="M 3 39 L 375 39 L 375 358 L 3 358 Z M 3 39 " clip-rule="nonzero"/></clipPath><clipPath id="8667b2dfd8"><path d="M 0 41.214844 L 377.230469 37.5 L 380.371094 356.234375 L 3.136719 359.949219 Z M 0 41.214844 " clip-rule="nonzero"/></clipPath><clipPath id="9297821552"><path d="M 0 41.214844 L 377.230469 37.5 L 380.371094 356.234375 L 3.136719 359.949219 Z M 0 41.214844 " clip-rule="nonzero"/></clipPath><clipPath id="e0ab061fa0"><rect x="0" width="211" y="0" height="159"/></clipPath><clipPath id="155f7b7a1f"><path d="M 54 147 L 84 147 L 84 228 L 54 228 Z M 54 147 " clip-rule="nonzero"/></clipPath><clipPath id="e4eb1ad219"><path d="M 64.976562 228.644531 L 52.769531 149.328125 L 72.78125 146.246094 L 84.988281 225.5625 Z M 64.976562 228.644531 " clip-rule="nonzero"/></clipPath><clipPath id="4b925a9047"><path d="M 64.976562 228.644531 L 52.769531 149.328125 L 72.78125 146.246094 L 84.988281 225.5625 Z M 64.976562 228.644531 " clip-rule="nonzero"/></clipPath><clipPath id="fe7b216c0f"><path d="M 288 107 L 318 107 L 318 186 L 288 186 Z M 288 107 " clip-rule="nonzero"/></clipPath><clipPath id="bcb334f07b"><path d="M 299.0625 186.675781 L 287.082031 108.84375 L 306.355469 105.878906 L 318.335938 183.710938 Z M 299.0625 186.675781 " clip-rule="nonzero"/></clipPath><clipPath id="8eba8e5c0f"><path d="M 299.0625 186.675781 L 287.082031 108.84375 L 306.355469 105.878906 L 318.335938 183.710938 Z M 299.0625 186.675781 " clip-rule="nonzero"/></clipPath></defs><g clip-path="url(#cf2e1a46f3)"><g clip-path="url(#8667b2dfd8)"><g clip-path="url(#9297821552)"><path fill="#ffffff" d="M 226.445312 39.121094 C 224.628906 39.136719 222.957031 39.992188 221.992188 41.542969 C 221.855469 41.824219 221.859375 42.242188 221.722656 42.523438 C 186.445312 39.511719 149.574219 45.613281 115.808594 54.058594 C 88.316406 60.902344 60.011719 69.851562 37.953125 88.394531 C 14.644531 107.925781 5.269531 135.996094 3.601562 165.386719 C 1.550781 198.699219 4.449219 237.417969 29.730469 261.925781 C 40.039062 272.035156 53.679688 279.316406 68.515625 280.148438 C 73.414062 280.378906 79.417969 279.480469 83.730469 276.921875 C 84.117188 301.957031 84.363281 326.992188 84.75 352.027344 C 84.785156 355.664062 88.734375 358.980469 92.074219 356.992188 C 92.914062 357.402344 93.757812 357.8125 94.738281 357.804688 C 95.71875 357.792969 96.695312 357.503906 97.664062 356.796875 C 114.753906 344.878906 129.722656 331.023438 142.441406 315.648438 C 143.964844 313.957031 145.203125 311.984375 146.585938 310.152344 C 148.238281 307.761719 149.894531 305.503906 151.695312 303.667969 C 155.15625 299.859375 157.949219 299.410156 163.957031 298.933594 C 176.398438 297.832031 188.832031 296.308594 201.121094 294.371094 C 249.023438 286.484375 284.855469 274.660156 313.917969 257.171875 C 336.304688 243.660156 364.746094 219.742188 372.636719 183.015625 C 372.902344 181.472656 373.167969 179.933594 373.429688 178.390625 L 373.566406 177.691406 L 373.5625 177.410156 L 373.964844 175.730469 C 378.261719 143.234375 365.320312 107.550781 340.035156 82.621094 C 312.777344 55.894531 272.621094 40.625 226.445312 39.121094 Z M 306.480469 70.085938 C 304.949219 70.519531 305.390625 72.894531 307.066406 72.597656 L 309.71875 72.152344 C 314.785156 75.179688 319.855469 78.625 324.648438 82.632812 C 328.457031 85.8125 331.988281 89.136719 335.238281 92.601562 C 331.460938 92.640625 327.6875 92.675781 323.910156 92.574219 C 323.628906 92.574219 323.351562 92.71875 323.210938 92.71875 C 317.117188 84.667969 310.050781 77.324219 302.019531 71.386719 C 295.816406 66.691406 289.484375 62.839844 282.875 59.40625 C 290.738281 62.125 298.746094 65.683594 306.480469 70.085938 Z M 336.371094 93.847656 C 346.410156 104.941406 353.949219 117.597656 358.558594 131.117188 C 352.796875 128.238281 346.625 126.480469 340.183594 125.84375 C 336.574219 114.410156 331.011719 103.554688 323.921875 93.832031 C 328.117188 93.789062 332.175781 93.890625 336.371094 93.847656 Z M 359.851562 134.742188 C 363.464844 146.316406 364.839844 158.332031 363.839844 170.09375 C 356.820312 167.503906 350.488281 163.929688 344.707031 159.371094 C 345.167969 149.015625 343.941406 138.398438 341.042969 128.214844 C 347.769531 129.125 354.085938 131.304688 359.851562 134.742188 Z M 344.460938 162.449219 C 350.238281 166.730469 356.703125 170.164062 363.582031 172.613281 C 363.324219 174.855469 362.929688 177.234375 362.53125 179.476562 C 360.53125 189.429688 357.125 198.554688 352.035156 207.277344 C 346.667969 202.15625 341.441406 196.890625 336.492188 191.34375 C 341.015625 182.207031 343.578125 172.390625 344.460938 162.449219 Z M 335.53125 193.453125 C 340.480469 198.859375 345.707031 204.121094 350.933594 209.246094 C 345.429688 218.394531 338.238281 226.71875 329.222656 234.359375 C 323.996094 229.515625 318.914062 224.667969 313.691406 219.824219 C 317.296875 216.710938 320.765625 213.601562 323.804688 210.074219 C 328.652344 204.851562 332.511719 199.21875 335.53125 193.453125 Z M 311.75 221.382812 C 316.972656 226.226562 322.054688 231.074219 327.277344 235.917969 C 319.785156 242.144531 311.171875 247.964844 301.289062 253.238281 C 296.617188 247.550781 291.117188 242.847656 284.785156 238.992188 C 294.527344 233.863281 303.5625 228.039062 311.75 221.382812 Z M 282.28125 240.277344 C 288.75 243.988281 294.390625 248.550781 299.0625 254.238281 C 290.015625 258.945312 279.988281 263.101562 268.972656 266.984375 C 264.308594 261.855469 259.363281 257.007812 254.28125 252.300781 C 263.621094 248.851562 273.09375 244.984375 282.28125 240.277344 Z M 251.632812 253.308594 C 256.714844 258.011719 261.660156 262.859375 266.328125 267.992188 C 258.101562 270.867188 249.316406 273.472656 239.964844 275.804688 C 233.21875 272.371094 227.4375 267.953125 222.492188 262.6875 C 227.234375 261.382812 231.976562 260.074219 236.71875 258.492188 C 241.597656 256.902344 246.617188 255.175781 251.632812 253.308594 Z M 219.421875 263.554688 C 219.425781 263.695312 219.425781 263.835938 219.566406 263.835938 C 224.230469 268.964844 229.730469 273.246094 236.058594 276.820312 C 226.152344 279.15625 215.820312 281.355469 204.789062 283.285156 C 197.902344 279.714844 191.5625 275.441406 185.917969 270.460938 C 197.09375 268.671875 208.261719 266.464844 219.421875 263.554688 Z M 183.273438 271.746094 C 188.496094 276.449219 194.410156 280.449219 200.597656 283.882812 C 198.226562 284.328125 195.851562 284.769531 193.335938 285.074219 C 187.472656 285.972656 181.605469 286.730469 175.875 287.34375 C 166.464844 283.519531 157.464844 278.855469 148.882812 273.621094 C 160.207031 273.230469 171.53125 272.28125 182.84375 270.628906 C 182.710938 271.191406 182.851562 271.46875 183.273438 271.746094 Z M 143.707031 273.8125 C 152.015625 279.1875 160.734375 283.996094 169.867188 287.964844 C 166.09375 288.28125 162.320312 288.738281 158.6875 289.054688 C 156.03125 289.21875 151.691406 288.84375 148.488281 290.550781 C 146.679688 291.550781 145.160156 293.382812 143.78125 295.496094 C 139.171875 296.238281 134.5625 296.703125 129.945312 296.609375 C 132.25 289.3125 133.992188 281.601562 135.175781 273.898438 C 138.117188 274.007812 140.914062 273.980469 143.707031 273.8125 Z M 129.128906 299.136719 C 133.46875 299.234375 137.800781 299.050781 142.132812 298.308594 C 141.996094 298.589844 141.855469 298.871094 141.582031 299.152344 C 140.753906 300.558594 140.066406 301.824219 139.515625 302.671875 C 135.925781 307.320312 132.191406 311.835938 128.179688 316.210938 C 126.085938 316.789062 123.988281 316.8125 121.890625 316.691406 C 124.773438 311.066406 127.09375 305.171875 129.128906 299.136719 Z M 120.792969 319.082031 C 122.335938 319.34375 123.875 319.328125 125.410156 319.175781 C 121.953125 322.984375 118.210938 326.519531 114.328125 330.054688 C 116.53125 326.535156 118.730469 322.738281 120.792969 319.082031 Z M 65.820312 262.132812 C 9.769531 266.320312 8.832031 185.199219 16.144531 146.519531 C 26.914062 89.621094 82.269531 71.730469 132.515625 60.46875 C 185.695312 48.613281 245.804688 44.664062 292.421875 77.078125 C 330.730469 103.695312 351.15625 160.707031 318.675781 200.613281 C 298.085938 225.992188 261.574219 240.0625 231.316406 249.589844 C 198.964844 259.839844 165.15625 264.371094 131.300781 263.722656 C 128.5 263.613281 126 265.457031 125.75 268.394531 C 122.792969 294.863281 112.125 319.585938 94.699219 339.621094 C 94.457031 315.003906 94.074219 290.527344 93.832031 265.910156 C 93.789062 261.574219 89.296875 259.800781 86.230469 260.949219 C 80.617188 259.046875 71.410156 261.65625 65.820312 262.132812 Z M 65.820312 262.132812 " fill-opacity="1" fill-rule="nonzero"/></g></g></g><g transform="matrix(1, 0, 0, 1, 82, 83)"><g clip-path="url(#e0ab061fa0)"><g fill="#ffffff" fill-opacity="1"><g transform="translate(14.132243, 125.989767)"><g><path d="M 26.9375 -4.1875 C 28.84375 -5 30.539062 -6.101562 32.03125 -7.5 C 33.519531 -8.90625 34.640625 -10.550781 35.390625 -12.4375 C 35.628906 -13.09375 35.835938 -14.066406 36.015625 -15.359375 C 36.203125 -16.648438 36.210938 -17.929688 36.046875 -19.203125 C 35.890625 -20.484375 35.460938 -21.46875 34.765625 -22.15625 C 34.078125 -22.851562 33.023438 -22.878906 31.609375 -22.234375 C 30.234375 -21.648438 29.101562 -20.78125 28.21875 -19.625 C 27.34375 -18.476562 26.488281 -17.316406 25.65625 -16.140625 C 24.820312 -14.972656 23.757812 -14.050781 22.46875 -13.375 C 20.6875 -12.445312 19.09375 -12.28125 17.6875 -12.875 C 16.28125 -13.46875 15.082031 -14.476562 14.09375 -15.90625 C 13.101562 -17.332031 12.367188 -18.765625 11.890625 -20.203125 C 11.773438 -20.703125 11.707031 -21.6875 11.6875 -23.15625 C 11.675781 -24.632812 11.75 -26.332031 11.90625 -28.25 C 12.070312 -30.164062 12.34375 -32.082031 12.71875 -34 C 13.101562 -35.925781 13.601562 -37.617188 14.21875 -39.078125 C 14.832031 -40.546875 15.59375 -41.535156 16.5 -42.046875 C 17.414062 -42.566406 18.484375 -42.394531 19.703125 -41.53125 C 19.710938 -40.945312 19.660156 -39.96875 19.546875 -38.59375 C 19.429688 -37.226562 19.390625 -35.769531 19.421875 -34.21875 C 19.453125 -32.675781 19.71875 -31.285156 20.21875 -30.046875 C 20.726562 -28.816406 21.640625 -28.03125 22.953125 -27.6875 C 24.921875 -27.1875 26.910156 -27.398438 28.921875 -28.328125 C 30.929688 -29.253906 32.363281 -30.628906 33.21875 -32.453125 C 34.164062 -34.429688 34.609375 -36.566406 34.546875 -38.859375 C 34.484375 -41.148438 34.007812 -43.390625 33.125 -45.578125 C 32.238281 -47.773438 31 -49.691406 29.40625 -51.328125 C 27.8125 -52.960938 25.9375 -54.078125 23.78125 -54.671875 C 19.90625 -55.773438 16.484375 -55.734375 13.515625 -54.546875 C 10.554688 -53.359375 8.054688 -51.40625 6.015625 -48.6875 C 3.972656 -45.976562 2.421875 -42.828125 1.359375 -39.234375 C 0.296875 -35.640625 -0.300781 -31.929688 -0.4375 -28.109375 C -0.570312 -24.285156 -0.234375 -20.671875 0.578125 -17.265625 C 1.390625 -13.859375 2.691406 -11.035156 4.484375 -8.796875 C 6.210938 -6.597656 8.363281 -5 10.9375 -4 C 13.507812 -3.007812 16.21875 -2.539062 19.0625 -2.59375 C 21.914062 -2.644531 24.539062 -3.175781 26.9375 -4.1875 Z M 26.9375 -4.1875 "/></g></g></g><g fill="#ffffff" fill-opacity="1"><g transform="translate(55.690134, 120.619313)"><g><path d="M 10.4375 -1.53125 C 11.707031 -1.925781 12.5625 -2.664062 13 -3.75 C 13.4375 -4.84375 13.628906 -6.109375 13.578125 -7.546875 C 13.535156 -8.984375 13.394531 -10.390625 13.15625 -11.765625 C 12.925781 -13.148438 12.753906 -14.296875 12.640625 -15.203125 C 12.585938 -15.546875 13.140625 -15.90625 14.296875 -16.28125 C 15.460938 -16.65625 16.847656 -17.003906 18.453125 -17.328125 C 20.054688 -17.648438 21.519531 -17.910156 22.84375 -18.109375 C 24.175781 -18.304688 24.984375 -18.425781 25.265625 -18.46875 C 25.367188 -17.6875 25.453125 -16.59375 25.515625 -15.1875 C 25.585938 -13.78125 25.75 -12.328125 26 -10.828125 C 26.25 -9.335938 26.660156 -8.023438 27.234375 -6.890625 C 27.816406 -5.753906 28.640625 -5.082031 29.703125 -4.875 C 31.484375 -4.46875 33.222656 -4.675781 34.921875 -5.5 C 36.628906 -6.332031 37.625 -7.6875 37.90625 -9.5625 C 38.445312 -13.382812 38.613281 -17.328125 38.40625 -21.390625 C 38.195312 -25.453125 37.867188 -29.539062 37.421875 -33.65625 C 36.984375 -37.78125 36.664062 -41.753906 36.46875 -45.578125 C 36.394531 -46.492188 36.335938 -47.695312 36.296875 -49.1875 C 36.253906 -50.6875 36.070312 -52.207031 35.75 -53.75 C 35.4375 -55.289062 34.921875 -56.601562 34.203125 -57.6875 C 33.484375 -58.78125 32.457031 -59.382812 31.125 -59.5 C 30.125 -59.601562 28.957031 -59.566406 27.625 -59.390625 C 26.300781 -59.222656 25.050781 -58.882812 23.875 -58.375 C 22.695312 -57.875 21.828125 -57.132812 21.265625 -56.15625 C 20.410156 -54.65625 20.003906 -52.753906 20.046875 -50.453125 C 20.085938 -48.160156 20.367188 -45.753906 20.890625 -43.234375 C 21.421875 -40.710938 21.992188 -38.296875 22.609375 -35.984375 C 23.222656 -33.671875 23.710938 -31.757812 24.078125 -30.25 C 22.441406 -30.03125 21.238281 -29.867188 20.46875 -29.765625 C 19.707031 -29.671875 19.039062 -29.585938 18.46875 -29.515625 C 17.90625 -29.441406 17.195312 -29.347656 16.34375 -29.234375 C 15.5 -29.128906 14.175781 -28.9375 12.375 -28.65625 C 12.007812 -31.988281 11.832031 -35.34375 11.84375 -38.71875 C 11.863281 -42.101562 11.890625 -45.460938 11.921875 -48.796875 C 11.972656 -50.660156 11.644531 -51.859375 10.9375 -52.390625 C 10.238281 -52.929688 9.304688 -53.144531 8.140625 -53.03125 C 6.972656 -52.914062 5.722656 -52.6875 4.390625 -52.34375 C 2.597656 -51.925781 1.054688 -51.488281 -0.234375 -51.03125 C -1.535156 -50.570312 -2.429688 -49.804688 -2.921875 -48.734375 C -3.410156 -47.671875 -3.429688 -46.046875 -2.984375 -43.859375 C -2.273438 -40.546875 -1.585938 -37.234375 -0.921875 -33.921875 C -0.265625 -30.609375 0.363281 -27.296875 0.96875 -23.984375 C 1.15625 -22.910156 1.296875 -21.34375 1.390625 -19.28125 C 1.484375 -17.21875 1.632812 -15.046875 1.84375 -12.765625 C 2.050781 -10.484375 2.457031 -8.359375 3.0625 -6.390625 C 3.664062 -4.421875 4.546875 -2.953125 5.703125 -1.984375 C 6.859375 -1.015625 8.4375 -0.863281 10.4375 -1.53125 Z M 10.4375 -1.53125 "/></g></g></g><g fill="#ffffff" fill-opacity="1"><g transform="translate(100.307511, 114.853487)"><g><path d="M 0.4375 0.640625 C 1.289062 2.472656 2.148438 3.476562 3.015625 3.65625 C 3.878906 3.84375 4.71875 3.492188 5.53125 2.609375 C 6.34375 1.734375 7.078125 0.632812 7.734375 -0.6875 C 8.390625 -2.019531 8.9375 -3.304688 9.375 -4.546875 C 9.820312 -5.785156 10.128906 -6.671875 10.296875 -7.203125 C 10.566406 -8.210938 11.394531 -9.035156 12.78125 -9.671875 C 14.164062 -10.316406 15.765625 -10.753906 17.578125 -10.984375 C 19.398438 -11.222656 21.125 -11.289062 22.75 -11.1875 C 24.375 -11.082031 25.585938 -10.820312 26.390625 -10.40625 C 27.015625 -10.09375 27.722656 -9.507812 28.515625 -8.65625 C 29.316406 -7.8125 30.160156 -6.96875 31.046875 -6.125 C 31.929688 -5.289062 32.785156 -4.691406 33.609375 -4.328125 C 34.429688 -3.972656 35.175781 -4.101562 35.84375 -4.71875 C 36.519531 -5.332031 37.039062 -6.664062 37.40625 -8.71875 C 37.65625 -9.957031 37.539062 -11.84375 37.0625 -14.375 C 36.59375 -16.914062 35.859375 -19.820312 34.859375 -23.09375 C 33.867188 -26.363281 32.707031 -29.679688 31.375 -33.046875 C 30.050781 -36.421875 28.632812 -39.59375 27.125 -42.5625 C 25.625 -45.539062 24.125 -48.023438 22.625 -50.015625 C 21.125 -52.015625 19.710938 -53.21875 18.390625 -53.625 C 17.078125 -53.96875 15.835938 -53.503906 14.671875 -52.234375 C 13.515625 -50.960938 12.421875 -49.179688 11.390625 -46.890625 C 10.367188 -44.597656 9.441406 -42.085938 8.609375 -39.359375 C 7.785156 -36.628906 7.039062 -33.9375 6.375 -31.28125 C 5.707031 -28.625 5.164062 -26.316406 4.75 -24.359375 C 4.34375 -22.410156 4.039062 -21.113281 3.84375 -20.46875 C 3.488281 -19.144531 3.007812 -17.566406 2.40625 -15.734375 C 1.8125 -13.898438 1.242188 -11.96875 0.703125 -9.9375 C 0.160156 -7.90625 -0.175781 -5.957031 -0.3125 -4.09375 C -0.445312 -2.238281 -0.195312 -0.660156 0.4375 0.640625 Z M 16.25 -20.078125 C 14.726562 -19.816406 13.832031 -20.054688 13.5625 -20.796875 C 13.300781 -21.535156 13.40625 -22.515625 13.875 -23.734375 C 14.34375 -24.953125 14.929688 -26.140625 15.640625 -27.296875 C 16.359375 -28.460938 16.945312 -29.304688 17.40625 -29.828125 C 17.601562 -29.671875 17.953125 -29.296875 18.453125 -28.703125 C 18.960938 -28.109375 19.445312 -27.390625 19.90625 -26.546875 C 20.363281 -25.710938 20.617188 -24.851562 20.671875 -23.96875 C 20.734375 -23.09375 20.445312 -22.304688 19.8125 -21.609375 C 19.175781 -20.921875 17.988281 -20.410156 16.25 -20.078125 Z M 16.25 -20.078125 "/></g></g></g><g fill="#ffffff" fill-opacity="1"><g transform="translate(141.185523, 109.570893)"><g><path d="M 23.984375 -4.3125 C 25.179688 -5.28125 25.976562 -6.664062 26.375 -8.46875 C 26.78125 -10.269531 26.957031 -12.265625 26.90625 -14.453125 C 26.851562 -16.640625 26.710938 -18.738281 26.484375 -20.75 C 26.253906 -22.757812 26.117188 -24.394531 26.078125 -25.65625 C 25.960938 -27.726562 25.859375 -29.804688 25.765625 -31.890625 C 25.671875 -33.972656 25.523438 -36.039062 25.328125 -38.09375 C 25.222656 -39.75 25.207031 -40.859375 25.28125 -41.421875 C 25.351562 -41.984375 25.675781 -42.367188 26.25 -42.578125 C 26.820312 -42.796875 27.769531 -43.164062 29.09375 -43.6875 C 30.25 -44.113281 31.378906 -44.847656 32.484375 -45.890625 C 33.585938 -46.929688 34.515625 -48.101562 35.265625 -49.40625 C 36.015625 -50.71875 36.441406 -51.96875 36.546875 -53.15625 C 36.660156 -54.351562 36.300781 -55.359375 35.46875 -56.171875 C 34.644531 -56.984375 33.222656 -57.429688 31.203125 -57.515625 C 27.492188 -57.671875 23.722656 -57.5 19.890625 -57 C 16.066406 -56.507812 12.335938 -56.054688 8.703125 -55.640625 C 6.484375 -55.421875 4.398438 -55.039062 2.453125 -54.5 C 0.515625 -53.96875 -0.984375 -53.023438 -2.046875 -51.671875 C -3.109375 -50.328125 -3.523438 -48.316406 -3.296875 -45.640625 C -3.109375 -43.304688 -2.546875 -41.535156 -1.609375 -40.328125 C -0.671875 -39.117188 0.378906 -38.300781 1.546875 -37.875 C 2.722656 -37.457031 3.882812 -37.273438 5.03125 -37.328125 C 6.175781 -37.390625 7.09375 -37.539062 7.78125 -37.78125 C 8.46875 -38.019531 8.753906 -38.128906 8.640625 -38.109375 C 9.421875 -38.328125 10 -37.96875 10.375 -37.03125 C 10.757812 -36.09375 11.03125 -34.914062 11.1875 -33.5 C 11.34375 -32.082031 11.4375 -30.671875 11.46875 -29.265625 C 11.5 -27.859375 11.5625 -26.8125 11.65625 -26.125 C 11.875 -23.976562 12.140625 -21.8125 12.453125 -19.625 C 12.765625 -17.4375 13.144531 -15.28125 13.59375 -13.15625 C 13.8125 -11.914062 14.15625 -10.503906 14.625 -8.921875 C 15.09375 -7.347656 15.71875 -5.960938 16.5 -4.765625 C 17.28125 -3.578125 18.273438 -2.859375 19.484375 -2.609375 C 20.703125 -2.359375 22.203125 -2.925781 23.984375 -4.3125 Z M 23.984375 -4.3125 "/></g></g></g><g fill="#ffffff" fill-opacity="1"><g transform="translate(183.954058, 104.04399)"><g><path d="M 11.359375 -19.78125 C 12.117188 -21.03125 12.535156 -22.476562 12.609375 -24.125 C 12.691406 -25.78125 12.660156 -27.453125 12.515625 -29.140625 C 12.378906 -30.828125 12.316406 -32.332031 12.328125 -33.65625 C 12.328125 -34.570312 12.40625 -35.960938 12.5625 -37.828125 C 12.726562 -39.703125 12.867188 -41.738281 12.984375 -43.9375 C 13.097656 -46.144531 13.09375 -48.316406 12.96875 -50.453125 C 12.84375 -52.597656 12.5 -54.46875 11.9375 -56.0625 C 11.382812 -57.664062 10.53125 -58.742188 9.375 -59.296875 C 7.101562 -60.328125 5.28125 -60.679688 3.90625 -60.359375 C 2.539062 -60.035156 1.53125 -59.28125 0.875 -58.09375 C 0.21875 -56.90625 -0.210938 -55.476562 -0.421875 -53.8125 C -0.640625 -52.15625 -0.695312 -50.484375 -0.59375 -48.796875 C -0.5 -47.109375 -0.375 -45.671875 -0.21875 -44.484375 C 0.144531 -41.648438 0.316406 -38.644531 0.296875 -35.46875 C 0.273438 -32.289062 0.40625 -29.253906 0.6875 -26.359375 C 0.976562 -23.460938 1.722656 -20.96875 2.921875 -18.875 C 3.429688 -17.957031 4.269531 -17.457031 5.4375 -17.375 C 6.601562 -17.300781 7.773438 -17.507812 8.953125 -18 C 10.128906 -18.5 10.929688 -19.09375 11.359375 -19.78125 Z M 7.125 -1.09375 C 8.40625 -0.851562 9.5 -1.148438 10.40625 -1.984375 C 11.3125 -2.828125 11.976562 -3.925781 12.40625 -5.28125 C 12.84375 -6.632812 13.050781 -8.015625 13.03125 -9.421875 C 13.019531 -10.828125 12.75 -12.023438 12.21875 -13.015625 C 11.695312 -14.015625 10.941406 -14.507812 9.953125 -14.5 C 9.054688 -15.25 8.023438 -15.332031 6.859375 -14.75 C 5.691406 -14.164062 4.644531 -13.222656 3.71875 -11.921875 C 2.789062 -10.617188 2.179688 -9.21875 1.890625 -7.71875 C 1.597656 -6.21875 1.820312 -4.835938 2.5625 -3.578125 C 3.300781 -2.316406 4.820312 -1.488281 7.125 -1.09375 Z M 7.125 -1.09375 "/></g></g></g></g></g><g clip-path="url(#155f7b7a1f)"><g clip-path="url(#e4eb1ad219)"><g clip-path="url(#4b925a9047)"><path fill="#ffffff" d="M 63.449219 218.730469 C 64.289062 224.203125 69.40625 227.949219 74.875 227.109375 C 80.347656 226.265625 84.097656 221.152344 83.253906 215.683594 C 82.414062 210.210938 77.300781 206.460938 71.828125 207.304688 C 66.355469 208.144531 62.605469 213.257812 63.449219 218.730469 Z M 54.304688 159.3125 C 55.148438 164.785156 60.261719 168.53125 65.730469 167.691406 C 71.203125 166.847656 74.953125 161.734375 74.109375 156.265625 C 73.269531 150.792969 68.15625 147.042969 62.683594 147.886719 C 57.210938 148.726562 53.460938 153.839844 54.304688 159.3125 Z M 58.875 189.019531 C 59.71875 194.492188 64.832031 198.242188 70.304688 197.398438 C 75.773438 196.558594 79.523438 191.445312 78.683594 185.972656 C 77.839844 180.5 72.726562 176.753906 67.253906 177.59375 C 61.785156 178.4375 58.035156 183.550781 58.875 189.019531 Z M 58.875 189.019531 " fill-opacity="1" fill-rule="nonzero"/></g></g></g><g clip-path="url(#fe7b216c0f)"><g clip-path="url(#bcb334f07b)"><g clip-path="url(#8eba8e5c0f)"><path fill="#ffffff" d="M 297.566406 176.960938 C 298.390625 182.324219 303.402344 185.996094 308.765625 185.171875 C 314.128906 184.347656 317.804688 179.335938 316.976562 173.972656 C 316.152344 168.609375 311.140625 164.933594 305.777344 165.761719 C 300.414062 166.585938 296.738281 171.597656 297.566406 176.960938 Z M 288.601562 118.722656 C 289.429688 124.085938 294.441406 127.761719 299.804688 126.9375 C 305.164062 126.109375 308.839844 121.097656 308.015625 115.734375 C 307.191406 110.375 302.179688 106.699219 296.816406 107.523438 C 291.453125 108.347656 287.777344 113.359375 288.601562 118.722656 Z M 293.085938 147.839844 C 293.910156 153.203125 298.921875 156.878906 304.285156 156.054688 C 309.648438 155.230469 313.320312 150.214844 312.496094 144.855469 C 311.671875 139.492188 306.660156 135.816406 301.296875 136.640625 C 295.933594 137.46875 292.257812 142.480469 293.085938 147.839844 Z M 293.085938 147.839844 " fill-opacity="1" fill-rule="nonzero"/></g></g></g></svg>