<svg xmlns="http://www.w3.org/2000/svg" xmlns:xlink="http://www.w3.org/1999/xlink" width="500" zoomAndPan="magnify" viewBox="0 0 375 374.999991" height="500" preserveAspectRatio="xMidYMid meet" version="1.0"><defs><clipPath id="fda2e579c5"><path d="M 224 64.753906 L 288 64.753906 L 288 221 L 224 221 Z M 224 64.753906 " clip-rule="nonzero"/></clipPath><clipPath id="f5aaabaa2a"><path d="M 31.992188 105 L 364 105 L 364 310.003906 L 31.992188 310.003906 Z M 31.992188 105 " clip-rule="nonzero"/></clipPath><clipPath id="626fbce858"><path d="M 112.5 306.636719 L 281.25 306.636719 L 281.25 338.886719 L 112.5 338.886719 Z M 112.5 306.636719 " clip-rule="nonzero"/></clipPath></defs><path fill="#ffffff" d="M 86.75 200.738281 L 87.0625 200.738281 C 89.585938 200.835938 91.964844 201.980469 93.613281 203.878906 L 120.683594 235.21875 L 120.683594 142.601562 L 57.453125 142.601562 L 57.453125 226.269531 L 80.328125 203.394531 C 82.035156 201.679688 84.320312 200.738281 86.75 200.738281 Z M 86.75 200.738281 " fill-opacity="1" fill-rule="nonzero"/><path fill="#ffffff" d="M 204.179688 240.964844 L 204.179688 197.722656 L 140.949219 197.722656 L 140.949219 258.679688 L 161.84375 282.863281 Z M 204.179688 240.964844 " fill-opacity="1" fill-rule="nonzero"/><g clip-path="url(#fda2e579c5)"><path fill="#ffffff" d="M 287.683594 64.777344 L 224.453125 64.777344 L 224.453125 220.910156 L 287.683594 158.339844 Z M 287.683594 64.777344 " fill-opacity="1" fill-rule="nonzero"/></g><g clip-path="url(#f5aaabaa2a)"><path fill="#ffffff" d="M 362.671875 107.523438 C 361.566406 106.257812 359.878906 105.679688 358.222656 105.980469 L 316.449219 113.71875 C 313.859375 114.199219 312.152344 116.6875 312.632812 119.277344 C 313.113281 121.867188 315.59375 123.574219 318.183594 123.09375 L 343.527344 118.402344 L 161.597656 298.433594 L 90.347656 215.953125 C 89.488281 214.949219 88.242188 214.355469 86.921875 214.304688 C 85.59375 214.261719 84.308594 214.761719 83.371094 215.703125 L 31.992188 267.078125 L 31.992188 280.5625 L 86.488281 226.066406 L 157.714844 308.523438 C 158.582031 309.519531 159.816406 310.117188 161.136719 310.164062 C 162.457031 310.207031 163.742188 309.71875 164.679688 308.796875 L 349.007812 126.390625 L 341.476562 149.746094 C 340.664062 152.25 342.042969 154.9375 344.546875 155.75 C 345.035156 155.90625 345.527344 155.980469 346.015625 155.980469 C 348.023438 155.980469 349.894531 154.695312 350.546875 152.671875 L 363.625 112.132812 C 364.140625 110.53125 363.78125 108.78125 362.671875 107.519531 Z M 362.671875 107.523438 " fill-opacity="1" fill-rule="nonzero"/></g><g clip-path="url(#626fbce858)"><path fill="#ffffff" d="M 280.160156 325.820312 C 280.027344 326.324219 279.800781 326.785156 279.453125 327.148438 C 277.308594 329.417969 273.691406 330.515625 270.875 331.644531 C 265.371094 333.851562 259.839844 335.960938 254.414062 338.355469 C 250.96875 339.878906 249.386719 333.0625 252.460938 331.703125 C 256.523438 329.910156 260.644531 328.265625 264.773438 326.632812 C 242.890625 325.746094 221.050781 323.945312 199.148438 323.457031 C 185.417969 323.152344 171.675781 323.160156 157.945312 322.914062 C 144.222656 322.667969 130.476562 322.621094 116.804688 323.953125 C 112.777344 324.34375 111.210938 319.070312 115.78125 318.625 C 129.457031 317.292969 143.199219 317.339844 156.921875 317.585938 C 170.65625 317.832031 184.394531 317.824219 198.125 318.128906 C 221.113281 318.640625 244.035156 320.601562 267.011719 321.433594 C 266.269531 321.0625 265.546875 320.699219 264.871094 320.332031 C 260.386719 317.890625 255.792969 315.570312 251.515625 312.769531 C 248.339844 310.691406 252.578125 305.179688 255.359375 307 C 259.886719 309.964844 264.757812 312.402344 269.503906 314.992188 C 273.058594 316.929688 277.675781 318.828125 280.472656 321.863281 C 281.527344 323.011719 281.132812 324.613281 280.160156 325.820312 Z M 280.160156 325.820312 " fill-opacity="1" fill-rule="nonzero"/></g></svg>