<svg xmlns="http://www.w3.org/2000/svg" xmlns:xlink="http://www.w3.org/1999/xlink" width="500" zoomAndPan="magnify" viewBox="0 0 375 374.999991" height="500" preserveAspectRatio="xMidYMid meet" version="1.0"><defs><clipPath id="fbbca3dde4"><path d="M 15.816406 52 L 87 52 L 87 183 L 15.816406 183 Z M 15.816406 52 " clip-rule="nonzero"/></clipPath><clipPath id="f3cdb303b6"><path d="M 106 17.746094 L 175 17.746094 L 175 43 L 106 43 Z M 106 17.746094 " clip-rule="nonzero"/></clipPath><clipPath id="edd991b4a2"><path d="M 182 342 L 241 342 L 241 357.496094 L 182 357.496094 Z M 182 342 " clip-rule="nonzero"/></clipPath><clipPath id="87daf2f8f9"><path d="M 109 65.488281 L 281.4375 65.488281 L 281.4375 309.238281 L 109 309.238281 Z M 109 65.488281 " clip-rule="nonzero"/></clipPath></defs><path fill="#ffffff" d="M 186.816406 344.316406 C 165.597656 344.316406 145.011719 340.160156 125.632812 331.964844 C 106.914062 324.046875 90.101562 312.714844 75.667969 298.277344 C 61.234375 283.84375 49.902344 267.035156 41.984375 248.316406 C 33.785156 228.9375 29.632812 208.351562 29.632812 187.132812 C 29.632812 165.914062 33.789062 145.328125 41.984375 125.949219 C 49.902344 107.230469 61.234375 90.421875 75.667969 75.988281 C 90.101562 61.554688 106.914062 50.222656 125.632812 42.300781 C 145.011719 34.105469 165.597656 29.949219 186.816406 29.949219 C 208.03125 29.949219 228.617188 34.105469 248 42.300781 C 266.71875 50.21875 283.527344 61.550781 297.960938 75.988281 C 312.394531 90.421875 323.726562 107.230469 331.644531 125.949219 C 339.84375 145.328125 344 165.914062 344 187.132812 C 344 208.351562 339.84375 228.9375 331.644531 248.316406 C 323.730469 267.035156 312.394531 283.84375 297.960938 298.277344 C 283.527344 312.710938 266.71875 324.042969 248 331.964844 C 228.621094 340.160156 208.035156 344.316406 186.816406 344.316406 Z M 186.816406 36.980469 C 104.019531 36.980469 36.664062 104.339844 36.664062 187.132812 C 36.664062 269.925781 104.019531 337.285156 186.816406 337.285156 C 269.609375 337.285156 336.96875 269.925781 336.96875 187.132812 C 336.96875 104.339844 269.609375 36.980469 186.816406 36.980469 Z M 186.816406 36.980469 " fill-opacity="1" fill-rule="nonzero"/><g clip-path="url(#fbbca3dde4)"><path fill="#ffffff" d="M 22.851562 182.398438 L 15.820312 182.289062 C 16.234375 156.664062 22.722656 131.136719 34.582031 108.46875 C 46 86.644531 62.5 67.324219 82.296875 52.597656 L 86.496094 58.238281 C 67.539062 72.339844 51.742188 90.835938 40.8125 111.730469 C 29.457031 133.429688 23.25 157.867188 22.851562 182.398438 Z M 22.851562 182.398438 " fill-opacity="1" fill-rule="nonzero"/></g><path fill="#ffffff" d="M 87.839844 324.472656 C 80.402344 319.53125 73.332031 313.917969 66.820312 307.789062 C 57.71875 299.21875 49.648438 289.585938 42.835938 279.160156 C 29.734375 259.109375 21.238281 235.878906 18.257812 211.984375 L 25.234375 211.117188 C 28.082031 233.953125 36.207031 256.15625 48.722656 275.316406 C 60.003906 292.578125 74.472656 307.148438 91.730469 318.613281 Z M 87.839844 324.472656 " fill-opacity="1" fill-rule="nonzero"/><g clip-path="url(#f3cdb303b6)"><path fill="#ffffff" d="M 110.378906 42.011719 L 106.910156 35.894531 C 117.335938 29.984375 128.496094 25.4375 140.078125 22.378906 C 151.195312 19.445312 162.664062 17.894531 174.164062 17.773438 L 174.238281 24.804688 C 163.316406 24.921875 152.425781 26.394531 141.871094 29.179688 C 130.875 32.082031 120.277344 36.402344 110.378906 42.011719 Z M 110.378906 42.011719 " fill-opacity="1" fill-rule="nonzero"/></g><path fill="#ffffff" d="M 253.4375 345.324219 L 250.632812 339.070312 C 265.992188 332.183594 317.839844 304.90625 340.023438 243.121094 C 359.175781 189.792969 344.816406 142.703125 337.757812 124.933594 L 344.125 122.402344 C 349.53125 136.007812 353.359375 151.253906 355.1875 166.488281 C 358.453125 193.683594 355.523438 220.242188 346.476562 245.4375 C 340.867188 261.054688 333.007812 275.726562 323.113281 289.046875 C 314.996094 299.96875 305.453125 310.078125 294.742188 319.085938 C 282.0625 329.75 267.390625 339.066406 253.4375 345.324219 Z M 253.4375 345.324219 " fill-opacity="1" fill-rule="nonzero"/><g clip-path="url(#edd991b4a2)"><path fill="#ffffff" d="M 196.953125 357.207031 C 192.21875 357.207031 187.484375 356.929688 182.78125 356.378906 L 183.582031 349.574219 C 192.457031 350.613281 201.453125 350.613281 210.324219 349.574219 C 219.65625 348.476562 228.851562 346.226562 237.644531 342.886719 L 240.078125 349.292969 C 230.757812 352.832031 221.015625 355.21875 211.125 356.378906 C 206.421875 356.929688 201.6875 357.207031 196.953125 357.207031 Z M 196.953125 357.207031 " fill-opacity="1" fill-rule="nonzero"/></g><path fill="#ffffff" d="M 306.261719 77.347656 C 298.945312 68.417969 290.515625 60.441406 281.203125 53.636719 C 271.441406 46.507812 260.761719 40.699219 249.460938 36.375 L 251.910156 29.976562 C 263.777344 34.515625 274.992188 40.613281 285.242188 48.101562 C 295.023438 55.25 303.878906 63.628906 311.5625 73.003906 Z M 306.261719 77.347656 " fill-opacity="1" fill-rule="nonzero"/><g clip-path="url(#87daf2f8f9)"><path fill="#ffffff" d="M 194.222656 306.355469 L 188.003906 303.273438 L 188.160156 291.726562 L 188.929688 291.230469 C 190.882812 289.972656 191.355469 287.765625 190.042969 286.046875 C 188.742188 284.34375 186.917969 283.914062 185.367188 284.953125 C 183.078125 286.480469 183.136719 289.734375 185.480469 291.117188 L 186.3125 291.609375 L 186.472656 294.257812 C 186.726562 298.40625 186.675781 302.550781 186.367188 302.550781 C 186.222656 302.550781 184.625 301.898438 182.824219 301.105469 C 181.019531 300.308594 178.734375 299.328125 177.742188 298.929688 L 175.9375 298.195312 L 175.9375 282.007812 L 177.375 280.585938 C 178.527344 279.445312 178.972656 279.164062 179.613281 279.164062 C 181.417969 279.164062 182.078125 277.03125 180.644531 275.828125 C 179.71875 275.046875 179.199219 275.019531 178.332031 275.695312 C 177.808594 276.109375 177.679688 276.425781 177.679688 277.257812 C 177.679688 278.226562 177.542969 278.4375 175.9375 280.035156 L 174.195312 281.761719 L 174.195312 289.667969 C 174.195312 294.015625 174.152344 297.574219 174.101562 297.574219 C 174.050781 297.574219 173.183594 297.199219 172.171875 296.742188 C 171.164062 296.285156 169.917969 295.769531 169.40625 295.601562 L 168.476562 295.296875 L 168.476562 278.292969 L 174.535156 271.695312 L 175.699219 271.847656 C 176.578125 271.964844 177.136719 271.878906 178.007812 271.496094 C 181.585938 269.910156 180.507812 264.480469 176.601562 264.421875 C 173.785156 264.378906 171.992188 267.378906 173.308594 269.925781 L 173.707031 270.699219 L 166.980469 277.628906 L 166.980469 286.105469 C 166.980469 290.773438 166.886719 294.589844 166.769531 294.589844 C 166.519531 294.589844 164.914062 294.058594 164.753906 293.925781 C 164.695312 293.875 164.566406 284.289062 164.464844 272.628906 C 164.363281 260.964844 164.191406 250.359375 164.082031 249.058594 C 163.890625 246.714844 163.882812 246.703125 163.675781 247.9375 C 163.558594 248.621094 163.40625 259.121094 163.335938 271.261719 C 163.261719 283.40625 163.136719 293.34375 163.0625 293.34375 C 162.988281 293.34375 162.28125 293.109375 161.5 292.824219 L 159.992188 292.304688 L 159.992188 274.476562 C 159.910156 264.671875 159.675781 255.917969 159.566406 255.027344 L 159.375 253.410156 L 159.1875 255.152344 C 158.765625 259.101562 158.527344 267.808594 158.527344 279.5 C 158.523438 291.210938 158.496094 291.894531 158.085938 291.738281 C 157.847656 291.644531 157.175781 291.441406 156.59375 291.285156 L 155.347656 291.003906 L 155.347656 237.984375 L 153.542969 237.828125 L 153.542969 264.09375 C 153.542969 284.945312 153.480469 290.355469 153.234375 290.351562 C 152.84375 290.34375 147.078125 288.703125 146.9375 288.5625 C 146.882812 288.503906 146.785156 274.804688 146.730469 258.121094 C 146.632812 229.640625 146.375 217.707031 145.84375 217.140625 C 145.449219 216.714844 145.289062 226.238281 145.1875 256.523438 C 145.101562 281.335938 145.015625 288.007812 144.773438 288.054688 C 144.601562 288.085938 143.230469 287.800781 141.726562 287.414062 L 138.957031 286.71875 L 138.957031 267.660156 C 138.894531 248.90625 138.871094 248.59375 139.351562 248.441406 C 139.621094 248.355469 140.125 247.945312 140.472656 247.53125 C 142.109375 245.585938 140.515625 242.089844 137.988281 242.089844 C 136.644531 242.089844 135.25 243.230469 134.871094 244.628906 C 134.523438 245.925781 135.214844 247.519531 136.46875 248.292969 L 137.371094 248.847656 L 137.371094 286.441406 L 136.6875 286.304688 C 136.3125 286.230469 133.707031 285.8125 130.902344 285.378906 C 128.097656 284.941406 125.777344 284.566406 125.746094 284.535156 C 125.714844 284.503906 127.886719 282.199219 130.574219 279.417969 L 135.457031 274.355469 L 135.300781 266.761719 C 135.214844 262.585938 135.042969 259.070312 134.921875 258.949219 C 134.789062 258.816406 134.621094 261.203125 134.515625 264.773438 C 134.417969 268.105469 134.261719 271.464844 134.171875 272.246094 L 134.011719 273.660156 C 134.011719 273.660156 125.339844 282.753906 124.8125 283.34375 C 123.945312 284.3125 123.765625 284.40625 122.960938 284.289062 C 122.472656 284.222656 121.3125 284.089844 120.382812 284.007812 L 118.695312 283.847656 L 122.214844 280.136719 C 125.191406 277 125.847656 276.425781 126.464844 276.425781 C 127.351562 276.425781 128.414062 275.445312 128.414062 274.628906 C 128.414062 273.867188 127.769531 272.96875 127.023438 272.683594 C 125.777344 272.210938 124.589844 273.25 124.632812 274.773438 C 124.648438 275.394531 124.042969 276.144531 120.773438 279.574219 L 116.890625 283.640625 L 115.75 283.640625 C 115.121094 283.640625 113.507812 283.566406 112.164062 283.476562 L 109.722656 283.316406 L 111.082031 281.921875 C 114.894531 278.015625 119.785156 270.75 123.0625 264.117188 C 127.476562 255.191406 130.0625 246.488281 131.050781 237.238281 C 131.566406 232.414062 131.417969 220.929688 130.789062 216.960938 C 129.464844 208.609375 127.039062 201.703125 122.957031 194.695312 C 118.175781 186.484375 116.019531 181.457031 114.894531 175.910156 C 113.054688 166.820312 115.738281 158.859375 121.621094 155.964844 C 123.234375 155.167969 123.425781 155.136719 126.171875 155.136719 C 128.863281 155.136719 129.132812 155.183594 130.65625 155.910156 C 135.179688 158.070312 137.9375 161.515625 139.398438 166.828125 C 140.34375 170.265625 140.125 177.707031 138.984375 181.011719 C 138.710938 181.800781 139.800781 180.183594 140.644531 178.542969 C 143.546875 172.898438 143.203125 164.492188 139.832031 158.828125 C 138.738281 156.992188 135.867188 154.113281 134.089844 153.066406 C 131.5625 151.574219 129.363281 150.949219 126.28125 150.832031 C 122.128906 150.679688 119.066406 151.609375 116.640625 153.769531 L 115.441406 154.839844 L 115.839844 153.867188 C 116.945312 151.203125 119.671875 148.214844 122.070312 147.035156 C 124.207031 145.980469 126.851562 145.472656 129.285156 145.652344 C 137.605469 146.253906 145.074219 152.53125 148.054688 161.425781 C 149.332031 165.238281 149.351562 165.472656 149.5625 180.886719 C 149.800781 198.328125 150.195312 204.667969 151.554688 212.855469 C 153.089844 222.082031 155.714844 228.054688 160.804688 233.910156 C 168.109375 242.304688 192.867188 256.710938 215.539062 265.746094 C 218.425781 266.894531 226.652344 269.511719 227.007812 269.394531 C 227.144531 269.351562 224.976562 268.328125 222.1875 267.125 C 219.394531 265.921875 215.949219 264.363281 214.527344 263.65625 L 211.941406 262.367188 L 211.203125 260.628906 C 210.796875 259.667969 207.625 251.421875 207.625 251.421875 L 207.816406 248.1875 C 207.925781 246.40625 208.007812 242.839844 208.003906 240.257812 C 207.996094 237.46875 208.09375 235.464844 208.238281 235.316406 C 208.933594 234.621094 209.027344 235.539062 209.027344 242.945312 L 209.027344 250.488281 L 210.414062 253.445312 C 213.164062 259.320312 212.90625 258.949219 215.042969 260.023438 C 217.933594 261.480469 223.621094 263.867188 226.855469 264.984375 C 231.378906 266.542969 234.167969 267.042969 238.386719 267.050781 C 242.773438 267.058594 244.175781 266.644531 245.84375 264.832031 C 247.097656 263.472656 247.546875 262.460938 247.988281 260.003906 C 248.480469 257.25 248.375 256.875 247.746094 259.132812 C 246.773438 262.625 245.617188 264.195312 243.238281 265.269531 C 242.128906 265.769531 241.609375 265.832031 238.511719 265.820312 C 236.277344 265.8125 234.226562 265.652344 232.796875 265.375 C 230.535156 264.9375 224.332031 263.007812 223.527344 262.492188 C 223.109375 262.222656 223.109375 262.214844 223.539062 262.347656 C 224.742188 262.726562 228.09375 263.511719 230.671875 264.023438 C 234.359375 264.753906 241.191406 264.855469 242.632812 264.203125 C 245.679688 262.824219 247.128906 259.722656 247.167969 254.53125 C 247.183594 252.332031 247.105469 251.761719 246.664062 250.925781 C 245.878906 249.441406 245.21875 248.707031 245.878906 250.054688 C 246.894531 252.136719 246.757812 256.449219 245.582031 259.210938 C 245.308594 259.851562 245.144531 260.101562 245.214844 259.757812 C 246.664062 252.894531 245.363281 249.550781 240.660156 248.066406 C 237.589844 247.09375 233.203125 247.648438 229.601562 249.464844 C 228.335938 250.101562 228.320312 250.105469 228.808594 249.550781 C 229.546875 248.707031 232.832031 246.609375 233.9375 246.28125 C 234.46875 246.121094 234.902344 245.921875 234.902344 245.839844 C 234.902344 245.75 233.421875 244.125 231.605469 242.222656 C 229.792969 240.316406 228.535156 238.851562 228.808594 238.960938 C 231.179688 239.90625 235.777344 241.050781 236.0625 240.765625 C 236.128906 240.699219 235.921875 240.5625 235.605469 240.460938 C 234.835938 240.21875 230.871094 238.078125 230.988281 237.964844 C 231.035156 237.914062 231.675781 238.101562 232.410156 238.378906 C 237.277344 240.230469 243.539062 240.8125 245.929688 239.636719 C 247.59375 238.816406 248.40625 237.535156 248.390625 235.757812 C 248.371094 233.460938 248.351562 233.441406 246.28125 233.574219 C 244.773438 233.671875 244.019531 233.558594 241.648438 232.882812 C 239.070312 232.148438 238.601562 232.085938 236.421875 232.210938 C 235.109375 232.285156 232.746094 232.65625 231.171875 233.035156 C 228.78125 233.609375 227.734375 233.726562 224.828125 233.738281 C 221.707031 233.753906 221.195312 233.695312 219.914062 233.167969 C 218.734375 232.683594 218.480469 232.472656 218.480469 231.984375 C 218.480469 231.433594 218.578125 231.394531 219.796875 231.394531 C 223.042969 231.394531 225.6875 230.265625 235.847656 224.582031 C 240.777344 221.820312 242.746094 221.550781 246.039062 223.183594 C 247.144531 223.730469 248.261719 224.175781 248.53125 224.175781 C 248.792969 224.175781 249.503906 223.84375 250.105469 223.4375 C 250.730469 223.011719 251.53125 222.691406 251.96875 222.691406 C 253.066406 222.683594 254.269531 223.601562 255.101562 225.082031 C 255.875 226.457031 256.660156 229.652344 256.417969 230.421875 C 256.109375 231.386719 256.566406 230.847656 257.328125 229.339844 C 258.757812 226.523438 263.867188 213.574219 265.035156 209.828125 C 265.644531 207.867188 265.980469 205.285156 266.011719 202.28125 C 266.027344 200.980469 266.128906 199.417969 266.238281 198.800781 C 266.375 198.03125 266.460938 199.28125 266.503906 202.78125 C 266.578125 208.777344 266.84375 207.65625 267.125 200.167969 C 267.316406 195.011719 267.367188 195.367188 265.722656 189.84375 C 263.589844 182.691406 263.890625 183.324219 262.363281 182.65625 C 261.621094 182.328125 261.042969 182.03125 261.082031 181.992188 C 261.121094 181.953125 261.710938 182.027344 262.394531 182.15625 C 263.261719 182.316406 264.054688 182.292969 265.007812 182.082031 L 266.375 181.777344 L 264.261719 181.621094 C 262.429688 181.484375 259.285156 180.796875 259.285156 180.535156 C 259.285156 180.484375 259.984375 180.5 260.839844 180.566406 C 261.695312 180.632812 262.789062 180.582031 263.265625 180.453125 C 264.128906 180.21875 264.117188 180.214844 262.585938 180.03125 C 260.6875 179.800781 257.796875 179.074219 257.152344 178.664062 C 256.6875 178.371094 256.691406 178.367188 257.171875 178.535156 C 257.71875 178.726562 263.042969 178.964844 262.644531 178.777344 C 262.351562 178.644531 253.695312 176.90625 253.320312 176.90625 C 252.890625 176.90625 253.023438 177.757812 254.179688 182.363281 C 255.535156 187.769531 256.324219 190.167969 258.601562 195.8125 C 259.566406 198.207031 260.40625 200.636719 260.472656 201.207031 C 260.703125 203.253906 259.144531 206.921875 256.859375 209.710938 C 256.09375 210.648438 254.683594 211.875 252.738281 213.292969 C 252.300781 213.609375 252.308594 213.742188 252.917969 216.722656 C 253.265625 218.429688 253.703125 220.402344 253.886719 221.105469 L 254.226562 222.390625 L 253.335938 221.699219 C 252.84375 221.320312 251.820312 220.757812 251.058594 220.453125 C 249.25 219.722656 247.523438 218.457031 246.585938 217.15625 L 245.828125 216.109375 L 245.992188 217.222656 C 246.085938 217.832031 246.371094 218.824219 246.628906 219.425781 C 246.886719 220.03125 247.058594 220.566406 247.003906 220.617188 C 246.808594 220.8125 245.335938 218.234375 244.867188 216.875 C 244.207031 214.953125 244 212.773438 244.410156 212 C 244.585938 211.667969 245.222656 211.109375 245.824219 210.757812 C 246.972656 210.085938 247.683594 209.265625 247.96875 208.292969 C 248.121094 207.765625 248.089844 207.738281 247.605469 207.996094 C 247.3125 208.152344 246.070312 208.433594 244.851562 208.613281 C 242.644531 208.945312 241.859375 209.28125 239.664062 210.871094 C 239.203125 211.203125 238.464844 211.542969 238.023438 211.628906 C 236.25 211.964844 233.769531 210.65625 232.480469 208.710938 C 231.863281 207.773438 231.792969 207.453125 231.796875 205.535156 C 231.800781 203.714844 231.898438 203.21875 232.460938 202.160156 L 233.117188 200.914062 L 232.980469 202.460938 C 232.875 203.652344 232.941406 204.152344 233.253906 204.632812 C 233.945312 205.6875 234.632812 205.667969 237.183594 204.511719 C 243.714844 201.558594 247.71875 200.8125 252.445312 201.664062 C 253.539062 201.863281 255.050781 202.027344 255.800781 202.027344 C 257.339844 202.035156 258.863281 201.410156 258.992188 200.722656 C 259.039062 200.480469 258.292969 198.351562 257.335938 195.996094 C 253.582031 186.738281 251.269531 177.777344 250.90625 171.058594 C 250.78125 168.746094 250.839844 167.992188 251.292969 166.207031 C 252.222656 162.519531 254.65625 158.179688 257.144531 155.765625 L 258.289062 154.65625 L 258.289062 148.730469 C 258.289062 148.730469 264.441406 141.542969 265.082031 140.746094 L 266.25 139.292969 L 266.25 115.277344 L 264.421875 110.449219 C 262.695312 105.90625 261.59375 103.242188 258.550781 96.199219 C 257.847656 94.574219 257.308594 93.152344 257.347656 93.039062 C 257.476562 92.667969 261.980469 98.542969 265.023438 103.0625 C 266.65625 105.480469 267.992188 107.527344 267.992188 107.601562 C 267.992188 107.675781 267.796875 107.742188 267.558594 107.742188 C 266.4375 107.753906 266.4375 107.996094 267.515625 112.113281 L 268.660156 116.074219 L 268.660156 140.457031 L 260.777344 149.480469 L 260.777344 152.789062 L 262.207031 151.820312 C 262.996094 151.285156 264.992188 150.167969 266.644531 149.339844 C 268.300781 148.511719 270.011719 147.53125 270.453125 147.160156 C 271.542969 146.242188 272.175781 144.898438 272.46875 142.890625 C 272.773438 140.785156 272.769531 140.828125 272.472656 140.828125 C 272.335938 140.828125 272.222656 141.144531 272.222656 141.53125 C 272.222656 143.761719 270.605469 146.34375 268.460938 147.527344 L 267.371094 148.132812 L 268.570312 146.835938 C 269.230469 146.125 270.070312 144.898438 270.4375 144.117188 C 271.082031 142.738281 271.105469 142.527344 271.1875 137.46875 C 271.308594 130.015625 270.40625 117.929688 269.351562 112.917969 C 268.921875 110.871094 268.929688 110.972656 269.21875 110.972656 C 269.347656 110.972656 269.53125 111.222656 269.628906 111.53125 C 269.726562 111.839844 270.066406 112.671875 270.390625 113.378906 C 271.988281 116.894531 273.433594 121.78125 274.453125 127.144531 C 275.503906 132.679688 275.726562 134.617188 275.941406 140.207031 C 276.128906 145.0625 276.152344 145.246094 277.0625 147.917969 C 278.132812 151.070312 278.425781 153.667969 277.96875 155.992188 C 277.527344 158.238281 275.800781 163.207031 274.304688 166.613281 C 274.160156 166.945312 276.625 166.488281 278.421875 165.847656 C 279.023438 165.632812 279.558594 165.496094 279.609375 165.546875 C 279.660156 165.597656 278.785156 166.335938 277.660156 167.183594 C 276.097656 168.363281 275.789062 168.6875 276.347656 168.558594 C 277.742188 168.242188 279.320312 167.757812 280.289062 167.351562 L 281.265625 166.941406 L 280.808594 167.449219 C 280.027344 168.3125 277.867188 169.625 276.570312 170.019531 L 275.332031 170.402344 L 276.351562 170.417969 C 276.910156 170.429688 277.914062 170.273438 278.578125 170.074219 C 279.246094 169.871094 279.832031 169.75 279.886719 169.804688 C 280.058594 169.972656 278.101562 171.152344 276.949219 171.570312 C 276.332031 171.789062 274.664062 172.183594 273.238281 172.445312 C 271.816406 172.707031 270.582031 172.988281 270.5 173.070312 C 270.082031 173.492188 270.46875 179.589844 271.210938 184.246094 C 272.875 194.699219 272.824219 200.1875 270.992188 207.339844 C 269.621094 212.707031 268.992188 214.582031 263.839844 228.65625 C 257.910156 244.851562 255.652344 251.261719 254.203125 256.023438 C 251.96875 263.375 251.527344 264.617188 250.523438 266.390625 C 248.460938 270.046875 245.957031 272.15625 242.261719 273.351562 C 240.660156 273.871094 239.597656 274.023438 237.019531 274.121094 C 232.054688 274.300781 226.847656 273.441406 218.363281 271.023438 L 214.394531 269.890625 L 213.550781 270.859375 C 211.910156 272.738281 209.25 277.054688 207.296875 281.007812 C 203.433594 288.816406 201.390625 296.796875 200.621094 307.050781 L 200.445312 309.441406 Z M 144.855469 203.464844 C 144.738281 203.15625 144.21875 202.007812 143.707031 200.914062 C 143.195312 199.820312 139.394531 191.226562 139.394531 191.226562 L 137.773438 190.679688 C 131.867188 188.6875 127.914062 184.574219 126.796875 179.269531 C 126.332031 177.050781 126.332031 175.871094 126.796875 174.089844 C 127.574219 171.109375 128.886719 169.347656 130.949219 168.523438 C 132.902344 167.742188 133.519531 165.742188 132.265625 164.25 C 130.132812 161.714844 126.605469 163.417969 124.25 168.125 C 122.84375 170.933594 122.367188 173.25 122.484375 176.667969 C 122.566406 179.085938 122.542969 179.292969 122.265625 178.503906 C 120.726562 174.046875 120.894531 167.597656 122.652344 163.863281 C 123.480469 162.097656 125.199219 160.109375 126.867188 158.980469 C 127.914062 158.269531 127.960938 158.203125 127.296875 158.351562 C 124.679688 158.933594 121.851562 161.28125 120.535156 163.972656 C 119.402344 166.285156 118.953125 168.191406 118.792969 171.308594 C 118.625 174.546875 118.925781 176.753906 119.984375 180.085938 C 121.566406 185.054688 124.152344 189.101562 128.226562 192.984375 C 130.976562 195.605469 133.488281 197.339844 137.882812 199.644531 C 139.601562 200.542969 141.894531 201.890625 142.984375 202.636719 C 144.070312 203.382812 144.984375 204 145.019531 204.007812 C 145.046875 204.015625 144.976562 203.773438 144.855469 203.464844 Z M 267.761719 191.433594 C 266.417969 186.839844 265.226562 183.375 264.988281 183.375 C 264.859375 183.375 264.757812 183.457031 264.757812 183.5625 C 264.757812 183.792969 265.910156 187.789062 267.09375 191.660156 C 267.964844 194.511719 267.996094 194.730469 268.035156 198.875 L 268.078125 203.152344 L 268.554688 194.144531 Z M 269.484375 192.691406 C 269.375 192 268.878906 190.105469 268.382812 188.476562 C 267.890625 186.851562 267.417969 185.09375 267.335938 184.570312 C 267.242188 184.007812 267.046875 183.621094 266.839844 183.621094 C 266.65625 183.621094 266.503906 183.707031 266.503906 183.808594 C 266.503906 183.910156 267.121094 186.011719 267.871094 188.472656 C 269 192.167969 269.242188 193.300781 269.269531 194.941406 L 269.300781 196.933594 L 269.492188 195.441406 C 269.597656 194.621094 269.59375 193.382812 269.484375 192.691406 Z M 262.441406 176.035156 C 263.230469 175.800781 264.109375 175.277344 264.789062 174.640625 C 265.605469 173.878906 265.695312 173.730469 265.15625 174.050781 C 264.753906 174.289062 262.644531 175.519531 262.644531 175.519531 L 263.46875 174.570312 C 264.394531 173.5 264.757812 172.703125 264.757812 171.738281 C 264.757812 171.199219 264.648438 171.308594 264.113281 172.378906 C 262.972656 174.667969 261.230469 175.664062 258.386719 175.65625 C 256.902344 175.652344 255.144531 175.046875 254.25 174.238281 C 253.488281 173.550781 253.464844 174.109375 254.222656 174.867188 L 254.945312 175.585938 L 253.878906 175.46875 C 252.386719 175.300781 252.503906 175.835938 254 176.035156 C 254.648438 176.121094 255.347656 176.226562 255.554688 176.269531 C 256.738281 176.527344 261.324219 176.367188 262.441406 176.035156 Z M 259.796875 173.917969 C 261.070312 173.566406 262.03125 172.460938 262.207031 171.148438 L 262.351562 170.0625 L 261.667969 170.867188 C 260.40625 172.359375 258.066406 172.546875 256.554688 171.273438 C 255.636719 170.503906 255.625 170.605469 256.4375 172.203125 C 256.875 173.0625 257.324219 173.566406 257.867188 173.800781 C 258.839844 174.226562 258.722656 174.21875 259.796875 173.917969 Z M 273.484375 144.992188 C 273.628906 144.453125 273.6875 143.949219 273.609375 143.871094 C 273.53125 143.792969 273.46875 143.902344 273.46875 144.109375 C 273.46875 144.316406 273.175781 145.035156 272.820312 145.707031 C 272.234375 146.804688 272.222656 146.878906 272.695312 146.449219 C 272.984375 146.1875 273.339844 145.535156 273.484375 144.992188 Z M 207.730469 260.546875 C 206.5625 260.003906 206.253906 259.722656 206.015625 259.011719 C 205.855469 258.53125 202.808594 250.679688 202.808594 250.679688 L 202.808594 209.417969 L 168.472656 174.972656 L 168.472656 173.078125 C 168.472656 170.792969 168.351562 170.828125 172.203125 172.027344 L 174.816406 172.835938 L 174.957031 179.347656 L 204.800781 209.332031 L 204.800781 249.929688 L 205.75 251.792969 C 206.199219 252.820312 207.1875 255.226562 207.941406 257.144531 C 208.695312 259.058594 209.371094 260.765625 209.445312 260.9375 C 209.628906 261.367188 209.367188 261.308594 207.730469 260.546875 Z M 215.476562 257.453125 C 214.90625 256.460938 214.148438 255.148438 213.785156 254.53125 C 212.800781 252.84375 212.808594 252.878906 212.730469 248.90625 L 212.664062 245.203125 L 213.875 245.203125 L 213.789062 248.863281 C 213.710938 252.246094 213.746094 252.59375 214.234375 253.382812 C 214.941406 254.527344 216.988281 258.714844 216.988281 259.015625 C 216.988281 259.679688 216.410156 259.078125 215.476562 257.453125 Z M 201.964844 257.769531 C 201.019531 257.257812 200.144531 256.644531 200.011719 256.414062 C 199.882812 256.179688 199.285156 254.644531 198.679688 253.003906 L 197.582031 250.019531 L 197.582031 210.191406 L 162.007812 174.542969 L 162.007812 150.988281 L 164.089844 148.679688 C 166.160156 146.382812 166.175781 146.363281 166.101562 145.15625 C 166.058594 144.484375 165.96875 129.757812 165.96875 129.757812 L 143.324219 107.863281 L 139.042969 107.707031 C 136.6875 107.621094 124.453125 107.488281 124.453125 107.488281 L 121.910156 110.847656 L 141.539062 111.097656 L 163.246094 131.664062 L 163.246094 145.203125 L 159.34375 149.679688 L 159.066406 177.769531 L 193.609375 212.40625 L 193.609375 248.1875 L 194.851562 251.394531 C 195.539062 253.15625 196.066406 254.636719 196.019531 254.683594 C 195.9375 254.765625 191.339844 252.484375 189.183594 251.292969 L 188.128906 250.707031 L 188.128906 242.679688 C 188.128906 238.234375 188.226562 234.59375 188.347656 234.519531 C 188.472656 234.445312 188.96875 234.546875 189.453125 234.75 C 190.632812 235.242188 191.71875 234.992188 192.511719 234.046875 C 193.617188 232.734375 193.050781 230.847656 191.34375 230.140625 L 190.617188 229.839844 L 190.617188 217.488281 L 154.785156 181.160156 L 154.785156 173.621094 C 154.785156 169.472656 154.675781 165.070312 154.542969 163.839844 C 153.347656 152.4375 145.578125 142.753906 135.507812 140.085938 C 130.792969 138.839844 125.878906 139.214844 121.945312 141.121094 C 120.191406 141.96875 119.425781 142.554688 117.445312 144.535156 C 114.023438 147.960938 112.605469 150.582031 111.605469 155.328125 C 111.21875 157.15625 110.722656 163.785156 110.871094 165.023438 C 110.917969 165.402344 110.871094 165.710938 110.765625 165.710938 C 110.519531 165.710938 109.582031 160.160156 109.257812 156.785156 C 108.933594 153.421875 108.9375 143.472656 109.269531 139.832031 C 110.160156 130.027344 114.035156 117.441406 118.730469 109.136719 C 122.074219 103.214844 126.773438 96.859375 131.34375 92.0625 L 133.835938 89.449219 L 173.199219 126.71875 L 173.199219 141.230469 L 170.308594 144.574219 C 167.117188 148.269531 164.210938 151.976562 164.761719 151.648438 C 165.636719 151.125 169.796875 147.132812 172.964844 143.773438 L 176.433594 140.09375 L 176.433594 124.613281 L 136.863281 86.867188 L 138.300781 85.667969 C 142.96875 81.785156 149.289062 77.652344 154.734375 74.921875 C 159.128906 72.714844 167.1875 69.757812 172.328125 68.457031 C 176.164062 67.488281 183.578125 66.207031 187.019531 65.917969 C 191.398438 65.554688 202.171875 65.761719 205.894531 66.289062 C 217.902344 67.980469 229.15625 71.925781 239.257812 77.992188 C 243.1875 80.351562 243.179688 80.34375 244.195312 82.21875 C 244.644531 83.050781 245.945312 85.355469 247.085938 87.335938 C 248.222656 89.320312 250.792969 94.191406 252.789062 98.160156 L 256.390625 105.375 L 256.390625 114.394531 C 256.332031 121.71875 256.226562 123.414062 255.953125 123.414062 C 255.4375 123.414062 255.308594 121.480469 255.304688 113.476562 L 255.304688 106.15625 L 254.46875 104.894531 C 254.007812 104.199219 253.265625 103.039062 252.820312 102.316406 C 252.371094 101.59375 251.964844 101.046875 251.910156 101.101562 C 251.855469 101.152344 252.257812 102.078125 252.8125 103.15625 L 253.8125 105.109375 L 253.8125 123.640625 L 251.824219 126.769531 L 251.824219 135.140625 C 251.824219 141.910156 251.757812 143.558594 251.480469 143.785156 C 251.222656 144 251.074219 143.988281 250.867188 143.738281 C 250.675781 143.503906 250.460938 137.414062 250.347656 123.394531 L 250.347656 103.382812 C 250.347656 103.382812 241.597656 88.410156 236.441406 79.976562 C 235.226562 77.984375 234.851562 77.582031 233.304688 76.574219 C 230.925781 75.035156 229.675781 74.316406 229.5625 74.433594 C 229.507812 74.488281 230.46875 75.402344 231.699219 76.472656 C 232.925781 77.535156 234.027344 78.671875 234.152344 78.988281 C 234.273438 79.304688 237.023438 83.976562 240.269531 89.363281 L 248.597656 103.136719 L 248.597656 119.992188 C 248.679688 131.117188 248.695312 136.90625 248.53125 137.007812 C 247.988281 137.34375 247.84375 136.28125 247.84375 131.761719 L 247.84375 127.046875 L 247.160156 126.039062 C 246.785156 125.484375 246.058594 124.460938 245.542969 123.761719 L 244.605469 122.496094 L 244.605469 113.078125 C 244.605469 104.234375 244.578125 103.632812 244.140625 103.148438 C 243.886719 102.867188 241.683594 99.503906 239.25 95.671875 C 231.09375 82.828125 230.546875 82.09375 227.191406 79.351562 C 223.960938 76.71875 218.234375 72.480469 218.234375 72.722656 C 218.234375 72.847656 224.363281 78.425781 226.890625 80.605469 C 228.601562 82.082031 231.273438 86.121094 238.25 97.785156 L 241.746094 103.632812 L 241.621094 112.964844 C 241.511719 121.035156 241.445312 122.292969 241.121094 122.292969 C 240.800781 122.292969 240.726562 121.210938 240.582031 114.703125 C 240.492188 110.53125 240.363281 106.71875 240.300781 106.234375 C 240.222656 105.625 239.015625 103.582031 236.410156 99.664062 C 232.804688 94.246094 232.5 93.867188 229.847656 91.5 L 225.199219 87.347656 C 215.277344 78.492188 211.699219 75.394531 207.425781 71.949219 C 203.394531 68.699219 202.28125 68.007812 204.425781 70.078125 C 211.023438 76.453125 221.523438 86.460938 229.285156 93.773438 C 231.234375 95.609375 233.15625 98.273438 236.40625 103.632812 L 237.765625 105.871094 L 237.515625 128.734375 L 238.179688 129.621094 C 238.546875 130.105469 239.738281 131.507812 240.835938 132.730469 L 242.820312 134.953125 L 242.851562 138.660156 C 242.878906 142.089844 242.847656 142.355469 242.4375 142.277344 C 242.042969 142.199219 241.984375 141.832031 241.925781 138.976562 L 241.855469 135.761719 L 240.773438 134.5 C 240.179688 133.808594 238.796875 132.273438 237.695312 131.089844 L 235.65625 128.945312 L 235.65625 117.699219 C 235.582031 107.898438 235.476562 106.417969 235.140625 106.164062 C 234.929688 106.003906 234.027344 104.917969 233.140625 103.746094 C 232.25 102.578125 231.191406 101.191406 230.789062 100.667969 C 230.152344 99.847656 217.355469 89.445312 208.878906 82.863281 C 207.386719 81.703125 193.230469 70.179688 192.625 69.6875 C 188.8125 66.613281 196.332031 73.996094 212.140625 88.847656 C 217.609375 93.988281 230.179688 106.121094 230.179688 106.121094 L 230.441406 132.445312 L 242.609375 146.179688 L 242.609375 150.40625 C 242.609375 152.734375 242.535156 154.910156 242.449219 155.238281 C 242.3125 155.757812 242.242188 155.675781 241.957031 154.617188 C 241.027344 151.183594 240.628906 149.3125 240.628906 148.359375 C 240.625 147.402344 240.453125 147.105469 238.820312 145.25 C 237.828125 144.121094 235.898438 142.015625 234.53125 140.574219 C 233.160156 139.128906 227.6875 133.183594 227.6875 133.183594 L 227.6875 108.050781 L 225.136719 105.796875 C 223.734375 104.558594 221.300781 102.507812 219.726562 101.246094 C 218.148438 99.984375 215.910156 98.148438 214.75 97.171875 C 208.613281 92.007812 194.511719 81.105469 192.898438 80.269531 C 192.492188 80.058594 191.0625 78.957031 189.726562 77.824219 C 186.910156 75.441406 183.425781 72.601562 181.289062 70.949219 C 179.984375 69.941406 179.863281 69.890625 180.332031 70.542969 C 181.558594 72.246094 192.527344 82.75 199.820312 89.203125 C 204.746094 93.5625 216.617188 104.34375 218.417969 106.089844 L 219.976562 107.597656 L 219.976562 133.328125 L 225.140625 138.632812 C 236.378906 150.175781 237.5 151.5 239.179688 155.195312 C 239.949219 156.890625 241.382812 162.074219 241.355469 163.0625 C 241.347656 163.355469 241.03125 162.808594 240.652344 161.851562 C 240.273438 160.894531 239.703125 159.609375 239.386719 158.992188 C 238.496094 157.257812 235.820312 153.253906 234.8125 152.148438 L 233.90625 151.152344 L 235.144531 153.660156 C 237.613281 158.652344 238.992188 163.792969 240.507812 173.671875 C 241.003906 176.886719 241.503906 179.964844 241.621094 180.511719 C 241.953125 182.058594 243.15625 191.125 243.042969 191.238281 C 242.9375 191.34375 241.820312 187.351562 239.875 179.902344 C 237.828125 172.078125 236.304688 168.285156 233.515625 164.070312 C 231.667969 161.273438 231.359375 161.140625 232.601562 163.675781 C 234.074219 166.683594 235.765625 170.960938 237.046875 174.914062 C 237.648438 176.761719 238.132812 178.332031 238.132812 178.398438 C 238.128906 178.464844 237.449219 177.234375 236.621094 175.660156 C 233.359375 169.488281 230.921875 166.265625 226.058594 161.726562 C 225.035156 160.773438 225.0625 160.851562 226.585938 163.222656 C 227.691406 164.941406 229.292969 168.03125 230.300781 170.378906 L 230.910156 171.804688 L 230.105469 170.808594 C 229.664062 170.261719 228.535156 169.03125 227.59375 168.074219 C 226.277344 166.730469 226.003906 166.53125 226.390625 167.203125 C 226.960938 168.1875 228.042969 170.746094 228.289062 171.679688 C 228.421875 172.195312 228.375 172.164062 228.007812 171.511719 C 227.457031 170.535156 224.414062 166.65625 224.292969 166.777344 C 224.246094 166.828125 224.648438 167.867188 225.195312 169.085938 C 226.117188 171.148438 227.9375 175.910156 227.808594 175.910156 C 227.78125 175.910156 226.984375 175.394531 226.046875 174.769531 C 221.894531 171.984375 219.667969 171.277344 212.722656 170.5625 C 207.65625 170.042969 204.613281 169.546875 203.414062 169.046875 C 202.875 168.824219 201.707031 168.132812 200.816406 167.519531 C 199.65625 166.714844 199.375 166.589844 199.820312 167.070312 C 200.757812 168.082031 203.136719 169.589844 204.730469 170.1875 C 206.476562 170.839844 207.328125 171.003906 212.511719 171.675781 C 218.980469 172.511719 219.160156 172.605469 214.5 172.710938 C 212.242188 172.761719 209.566406 172.785156 208.550781 172.769531 C 206.34375 172.730469 206.65625 172.984375 209.53125 173.558594 C 210.691406 173.789062 211.699219 174.039062 211.765625 174.109375 C 211.832031 174.179688 210.882812 174.167969 209.648438 174.082031 C 207.742188 173.949219 204.792969 173.382812 202.933594 172.800781 C 202.65625 172.71875 202.941406 172.925781 203.5625 173.261719 C 205.167969 174.132812 206.878906 174.640625 209.027344 174.886719 L 210.894531 175.097656 L 208.15625 175.125 C 206.585938 175.144531 204.6875 175 203.695312 174.789062 C 202.746094 174.589844 201.929688 174.46875 201.878906 174.515625 C 201.699219 174.699219 204.410156 175.910156 205.035156 175.925781 C 205.382812 175.9375 205.890625 176.046875 206.167969 176.171875 C 206.488281 176.320312 206.058594 176.347656 204.921875 176.25 L 203.179688 176.097656 L 212.261719 185.191406 L 212.261719 194.820312 L 212.984375 194.820312 C 213.488281 194.820312 213.90625 195.054688 214.355469 195.585938 C 215.128906 196.503906 215.171875 197.269531 214.5 198.121094 C 214.027344 198.71875 214.003906 199.128906 214.003906 205.992188 C 214.003906 213.179688 213.730469 215.453125 213.421875 210.804688 C 213.332031 209.472656 213.261719 206.628906 213.257812 204.492188 C 213.257812 199.800781 213.144531 199.09375 212.375 198.898438 C 211.503906 198.679688 210.949219 197.917969 210.992188 197.003906 C 211.101562 194.78125 211.128906 192.640625 211.074219 189.464844 L 211.019531 185.972656 L 208.714844 183.609375 C 204.945312 179.734375 194.097656 169.746094 194.097656 170.148438 C 194.097656 170.464844 195.65625 172.425781 197.425781 174.335938 C 198.5625 175.5625 198.824219 176.003906 198.769531 176.589844 C 198.710938 177.226562 199.265625 177.90625 203.242188 182.089844 L 207.785156 186.863281 L 207.785156 198.304688 L 211.058594 202.058594 L 210.878906 206.523438 C 210.78125 208.980469 210.621094 210.992188 210.523438 210.992188 C 210.289062 210.992188 210.019531 207.78125 210.015625 204.921875 L 210.015625 202.65625 L 206.332031 198.640625 L 206.226562 187.230469 L 197.867188 178.921875 C 192.378906 173.464844 189.359375 170.28125 189.082031 169.65625 C 188.847656 169.132812 188.117188 168.125 187.457031 167.421875 C 185.390625 165.203125 179.597656 160.160156 177.285156 158.574219 C 173.425781 155.921875 171.289062 153.582031 172.640625 153.488281 C 173.21875 153.449219 172.800781 153.375 177.863281 154.402344 L 182.359375 155.3125 L 184.949219 154.300781 C 191.609375 151.699219 196.878906 150.585938 204.671875 150.125 C 207.425781 149.960938 207.5625 149.929688 206.414062 149.730469 C 204.269531 149.359375 198.402344 149.460938 195.59375 149.914062 C 192.332031 150.4375 188.121094 151.699219 184.917969 153.109375 L 182.460938 154.191406 L 178.445312 153.3125 C 175.992188 152.777344 174.464844 152.335938 174.523438 152.167969 C 174.652344 151.796875 175.550781 151.867188 179.304688 152.539062 L 182.550781 153.121094 L 184.902344 152.089844 C 190.679688 149.558594 194.789062 148.601562 200.816406 148.386719 C 204.203125 148.261719 205.640625 148.332031 209.027344 148.769531 C 211.285156 149.0625 213.578125 149.40625 214.121094 149.53125 C 214.664062 149.65625 215.152344 149.714844 215.203125 149.667969 C 215.359375 149.515625 210.992188 147.539062 209.179688 146.941406 C 208.921875 146.855469 208.769531 146.726562 208.839844 146.652344 C 209.082031 146.40625 213.074219 147.078125 214.984375 147.679688 C 216.707031 148.222656 216.8125 148.234375 216.242188 147.789062 C 215.132812 146.921875 209.207031 144.125 207.078125 143.460938 C 202.355469 141.988281 195.546875 141.617188 190.855469 142.574219 C 187.863281 143.183594 184.636719 144.257812 182.769531 145.265625 C 181.0625 146.191406 181.105469 145.957031 182.902344 144.511719 C 187.640625 140.703125 193.503906 138.054688 199.117188 137.191406 C 200.949219 136.910156 202.582031 136.839844 204.808594 136.9375 C 211.03125 137.214844 219.0625 139.914062 225.945312 144.046875 L 228.0625 145.316406 L 216.492188 134.03125 L 216.492188 109.324219 L 213.816406 106.726562 C 211.359375 104.332031 206.523438 99.90625 197.484375 91.761719 C 195.007812 89.53125 193.648438 88.484375 192.859375 88.210938 C 192.246094 88 190.195312 87.183594 188.300781 86.398438 L 184.855469 84.972656 L 179.824219 80.496094 C 173.433594 74.808594 170.730469 72.554688 170.535156 72.75 C 170.449219 72.835938 173.898438 76.414062 178.195312 80.703125 L 186.011719 88.503906 L 188.625 89.519531 C 190.0625 90.074219 191.535156 90.605469 191.902344 90.699219 C 192.660156 90.886719 195.382812 93.382812 204.984375 102.699219 L 211.765625 109.273438 L 211.765625 121.070312 C 211.765625 127.558594 211.703125 132.867188 211.625 132.867188 C 211.550781 132.867188 210.992188 132.742188 210.378906 132.589844 L 209.269531 132.308594 L 209.269531 114.082031 L 194.476562 100.042969 L 194.558594 98.4375 C 194.660156 96.433594 194.152344 95.257812 192.792969 94.359375 C 190.902344 93.105469 188.191406 93.742188 187.285156 95.652344 C 186.691406 96.898438 186.765625 98.78125 187.445312 99.777344 C 188.710938 101.640625 190.472656 102.183594 192.433594 101.316406 L 193.582031 100.808594 L 200.121094 107.171875 C 203.71875 110.675781 206.914062 113.878906 207.222656 114.292969 C 207.777344 115.042969 207.785156 115.125 207.785156 123.558594 L 207.785156 132.0625 L 202.871094 132.183594 C 200.167969 132.253906 197.308594 132.449219 196.519531 132.625 C 195.730469 132.796875 195.054688 132.894531 195.023438 132.839844 C 194.988281 132.789062 195 130.816406 195.050781 128.460938 C 195.132812 124.523438 195.175781 124.167969 195.605469 124.03125 C 196.4375 123.765625 197.167969 122.449219 197.167969 121.214844 C 197.167969 120.199219 197.058594 119.988281 196.132812 119.164062 L 195.09375 118.246094 L 195.09375 111.554688 L 172.214844 89.078125 L 166.691406 89.078125 L 163.164062 85.75 C 160.191406 82.941406 157.40625 80.460938 155.179688 78.644531 C 153.984375 77.667969 155.449219 79.335938 160.46875 84.660156 L 165.800781 90.320312 L 171.664062 90.320312 L 193.59375 111.84375 L 193.59375 118.328125 L 192.867188 118.605469 C 190.660156 119.4375 190.644531 122.972656 192.84375 123.945312 L 193.601562 124.28125 L 193.601562 128.574219 C 193.601562 130.933594 193.609375 132.945312 193.617188 133.046875 C 193.628906 133.144531 192.761719 133.519531 191.691406 133.882812 C 190.621094 134.242188 188.972656 134.890625 188.03125 135.320312 C 187.085938 135.75 186.277344 136.101562 186.226562 136.101562 C 186.175781 136.101562 186.136719 133.382812 186.136719 130.066406 L 186.136719 124.03125 L 177.925781 115.828125 L 177.925781 107.3125 L 165.5 95.042969 L 163.070312 95.042969 C 159.164062 95.019531 159.15625 95.007812 156.019531 92.0625 C 151.019531 87.367188 147.449219 84.15625 147.347656 84.25 C 147.179688 84.402344 149.636719 87.160156 154.132812 91.875 L 158.347656 96.292969 L 164.878906 96.292969 L 176.433594 107.53125 L 176.433594 116.226562 L 184.644531 124.296875 L 184.644531 136.804688 L 182.59375 138.171875 C 181.460938 138.925781 179.308594 140.660156 177.800781 142.027344 C 175.285156 144.308594 169.539062 150.363281 167.777344 152.582031 L 167.039062 153.511719 L 166.925781 164.152344 C 166.863281 170.003906 166.882812 174.929688 166.96875 175.097656 C 167.050781 175.269531 174.761719 183.066406 184.097656 192.433594 L 201.066406 209.457031 L 201.066406 230.105469 C 201.054688 250.707031 201.050781 250.753906 201.59375 252.328125 C 201.890625 253.199219 202.355469 254.414062 202.625 255.027344 C 203.382812 256.785156 204.042969 258.765625 203.851562 258.730469 C 203.753906 258.714844 202.90625 258.28125 201.964844 257.769531 Z M 219.953125 170.257812 C 219.375 168.730469 218.101562 166.640625 216.78125 165.042969 L 215.375 163.34375 L 215.210938 164.660156 C 215.117188 165.441406 214.785156 166.378906 214.402344 166.957031 C 213.707031 168.007812 211.511719 169.433594 210.582031 169.4375 C 210.273438 169.441406 210.023438 169.554688 210.023438 169.691406 C 210.023438 169.828125 210.722656 169.9375 211.628906 169.9375 C 213.511719 169.9375 217.953125 170.394531 218.925781 170.6875 C 220.125 171.046875 220.238281 171 219.953125 170.257812 Z M 209.535156 167.636719 C 210.777344 167.011719 211.851562 165.34375 212.132812 163.59375 L 212.292969 162.597656 L 211.8125 163.59375 C 211.199219 164.875 210.101562 165.492188 208.191406 165.640625 C 206.8125 165.75 206.507812 165.679688 205.046875 164.90625 C 203.890625 164.296875 203.304688 163.808594 202.992188 163.199219 C 202.402344 162.042969 202.441406 162.886719 203.054688 164.523438 C 203.570312 165.90625 205.261719 167.804688 206.167969 168.019531 C 207.320312 168.296875 208.492188 168.164062 209.535156 167.636719 Z M 118.882812 135.730469 L 124.894531 129.632812 L 136.421875 129.632812 L 141.058594 134.109375 L 147.742188 134.109375 L 148.042969 135.109375 C 148.429688 136.40625 149.5625 137.675781 150.898438 138.324219 C 153.65625 139.660156 156.726562 138.167969 157.546875 135.089844 C 158.722656 130.703125 153.546875 127.429688 149.773438 130.171875 C 149.421875 130.425781 148.734375 129.863281 144.921875 126.195312 L 140.480469 121.921875 L 122.734375 121.921875 L 118.492188 126.460938 C 114.175781 131.078125 112.5625 133.019531 112.828125 133.285156 C 113.011719 133.46875 116.433594 130.335938 120.324219 126.414062 L 123.308594 123.421875 L 140.234375 123.421875 L 148.574219 131.628906 L 148.171875 132.246094 C 147.773438 132.851562 147.691406 132.867188 144.667969 132.867188 L 141.574219 132.867188 L 136.703125 128.140625 L 124.488281 128.140625 L 119.570312 133.371094 C 115.230469 137.992188 112.242188 141.390625 112.242188 141.71875 C 112.242188 142.292969 113.734375 140.949219 118.882812 135.730469 Z M 184.613281 248.75 L 182.96875 247.714844 L 182.8125 245.710938 C 182.726562 244.609375 182.65625 239.4375 182.65625 234.222656 L 182.65625 224.734375 L 183.289062 224.316406 C 184.144531 223.753906 184.890625 222.472656 184.890625 221.566406 C 184.890625 220.742188 184.066406 219.203125 183.628906 219.203125 C 183.472656 219.203125 183.414062 219.03125 183.492188 218.820312 C 183.59375 218.558594 180.472656 215.210938 173.382812 207.96875 C 167.328125 201.789062 163.050781 197.230469 162.941406 196.839844 C 162.714844 196.027344 162.105469 195.566406 161.257812 195.566406 C 160.429688 195.566406 160.011719 195.984375 160.011719 196.820312 C 160.011719 197.652344 160.785156 198.367188 161.574219 198.265625 C 162.058594 198.199219 162.523438 198.5625 163.871094 200.046875 C 164.804688 201.070312 168.324219 204.710938 171.695312 208.128906 C 181.527344 218.109375 182.082031 218.703125 181.445312 218.703125 C 180.195312 218.703125 178.921875 220.183594 178.921875 221.640625 C 178.921875 222.53125 179.84375 223.949219 180.6875 224.355469 L 181.351562 224.65625 L 181.351562 235.613281 C 181.398438 243.214844 181.367188 246.570312 181.1875 246.570312 C 180.878906 246.570312 177.761719 244.707031 177.117188 244.140625 C 176.722656 243.789062 176.683594 243.085938 176.683594 236.261719 L 176.683594 228.769531 L 172.703125 224.8125 L 172.703125 215.152344 L 168.039062 210.4375 C 163.128906 205.476562 156.777344 199.410156 157.15625 200.042969 C 157.808594 201.132812 162.730469 206.714844 166.699219 210.867188 L 171.183594 215.59375 L 171.183594 225.183594 L 174.691406 229.179688 L 174.691406 235.78125 C 174.691406 239.410156 174.609375 242.34375 174.507812 242.296875 C 174.402344 242.25 173.730469 241.878906 173.015625 241.46875 L 171.703125 240.722656 L 171.703125 230.023438 L 158.4375 216.078125 C 155.722656 213.234375 153.402344 210.648438 153.285156 210.339844 C 152.992188 209.566406 152.128906 201.796875 151.78125 196.808594 C 151.625 194.550781 151.414062 186.601562 151.308594 179.144531 C 151.101562 164.578125 151.0625 164.113281 149.609375 159.972656 C 147.429688 153.746094 142.929688 148.488281 137.371094 145.679688 C 132.929688 143.429688 127.601562 142.769531 123.191406 143.917969 C 121.546875 144.34375 121.289062 144.242188 122.601562 143.683594 C 124.863281 142.726562 127.273438 142.269531 130.28125 142.230469 C 133.910156 142.1875 135.210938 142.480469 138.492188 144.070312 C 141.644531 145.597656 143.976562 147.394531 146.273438 150.050781 C 148.445312 152.566406 149.691406 154.613281 150.882812 157.621094 C 152.523438 161.769531 153.03125 166.070312 153.050781 176.035156 L 153.050781 181.257812 L 189.121094 217.894531 L 189.179688 223.972656 C 189.238281 229.925781 189.226562 230.0625 188.683594 230.753906 C 188.371094 231.148438 188.128906 231.808594 188.128906 232.25 C 188.128906 232.839844 187.9375 233.183594 187.382812 233.59375 L 186.636719 234.144531 L 186.636719 241.972656 C 186.636719 246.28125 186.550781 249.800781 186.449219 249.796875 C 186.347656 249.792969 185.519531 249.320312 184.613281 248.75 Z M 167.230469 237.316406 C 161.824219 232.875 158.3125 228.160156 156.007812 222.222656 C 155.292969 220.375 153.734375 214.953125 153.875 214.808594 C 153.914062 214.769531 154.339844 215.265625 154.824219 215.914062 C 155.308594 216.558594 157.820312 219.3125 160.410156 222.039062 L 169.46875 231.597656 L 169.46875 235.226562 C 169.46875 237.222656 169.382812 238.851562 169.28125 238.851562 C 169.179688 238.851562 168.253906 238.160156 167.230469 237.316406 Z M 207.007812 207.757812 L 206.878906 206.386719 L 179.429688 178.769531 L 179.429688 177.464844 C 179.425781 176.558594 179.320312 176.160156 179.09375 176.160156 C 178.914062 176.160156 178.449219 175.828125 178.0625 175.421875 C 177.414062 174.746094 177.371094 174.578125 177.5 173.316406 L 177.640625 171.945312 L 175.011719 169.511719 C 173.5625 168.171875 172.226562 166.714844 172.042969 166.277344 C 171.019531 163.835938 172.445312 164.523438 176.054688 168.210938 C 177.65625 169.847656 179.070312 171.183594 179.203125 171.183594 C 179.789062 171.183594 180.976562 172.019531 181.421875 172.75 C 182.101562 173.871094 182.027344 174.582031 181.132812 175.476562 C 180.480469 176.128906 180.378906 176.386719 180.488281 177.136719 C 180.597656 177.90625 181.460938 178.867188 186.875 184.246094 C 190.320312 187.667969 207.574219 205.246094 207.574219 205.246094 L 207.140625 209.125 Z M 195.128906 183.328125 C 191.074219 179.332031 176.558594 164.675781 176.558594 164.675781 L 171.832031 163.34375 L 171.691406 156.210938 L 186.636719 169.511719 L 186.636719 172.554688 L 194.96875 180.882812 C 201.914062 187.816406 203.304688 189.324219 203.304688 189.898438 C 203.304688 190.367188 203.175781 190.589844 202.90625 190.589844 C 202.683594 190.589844 199.1875 187.324219 195.128906 183.328125 Z M 180.167969 151.859375 L 177.214844 151.253906 C 176.097656 151.023438 175.933594 150.925781 176.21875 150.652344 C 176.5 150.382812 177.003906 150.429688 179.152344 150.917969 C 180.578125 151.242188 181.914062 151.539062 182.113281 151.578125 C 182.429688 151.640625 182.433594 151.691406 182.132812 151.921875 C 181.878906 152.121094 181.34375 152.105469 180.167969 151.859375 Z M 180.539062 150.261719 C 177.105469 149.542969 177.082031 149.535156 177.355469 149.261719 C 177.523438 149.097656 177.972656 149.101562 178.699219 149.265625 C 179.300781 149.402344 180.613281 149.644531 181.609375 149.800781 C 182.703125 149.972656 183.390625 150.191406 183.335938 150.355469 C 183.195312 150.769531 182.945312 150.761719 180.539062 150.261719 Z M 181.347656 148.980469 C 180.152344 148.695312 179.171875 148.355469 179.171875 148.226562 C 179.171875 148.09375 179.480469 148.042969 179.855469 148.113281 C 181.285156 148.375 185.257812 149.320312 185.363281 149.425781 C 185.640625 149.707031 183.316406 149.449219 181.347656 148.980469 Z M 257.664062 143.519531 C 257.597656 143.339844 257.507812 141.847656 257.464844 140.207031 L 257.382812 137.222656 L 260.671875 132.742188 L 260.488281 120.964844 C 260.386719 114.332031 260.199219 109.058594 260.070312 108.898438 C 259.941406 108.738281 259.425781 107.601562 258.921875 106.371094 C 257.988281 104.082031 252.660156 93.535156 250.628906 89.949219 C 249.042969 87.152344 247.09375 83.550781 247.09375 83.421875 C 247.09375 83.3125 248.03125 84.09375 251.59375 87.1875 C 253.328125 88.695312 253.824219 89.289062 254.25 90.367188 C 254.535156 91.09375 259.554688 102.988281 260.816406 106.238281 L 262.023438 109.339844 L 262.023438 121.460938 C 262.023438 129.148438 261.933594 133.640625 261.777344 133.734375 C 261.640625 133.820312 260.804688 134.796875 259.914062 135.90625 L 258.289062 137.921875 L 258.289062 140.730469 C 258.289062 142.34375 258.183594 143.601562 258.039062 143.691406 C 257.902344 143.777344 257.734375 143.699219 257.664062 143.519531 Z M 137.210938 196.960938 C 133.5 195.039062 131.320312 193.507812 129.007812 191.203125 C 126.878906 189.078125 125.652344 187.289062 124.667969 184.871094 C 123.878906 182.933594 123.707031 182.039062 124.355469 183.25 C 125.617188 185.59375 128.625 188.785156 131.183594 190.484375 C 132.9375 191.648438 136.492188 193.410156 137.699219 193.710938 C 138.28125 193.855469 138.566406 194.242188 139.386719 196.015625 C 139.925781 197.1875 140.335938 198.230469 140.300781 198.335938 C 140.261719 198.4375 138.871094 197.820312 137.210938 196.960938 Z M 137.210938 196.960938 " fill-opacity="1" fill-rule="nonzero"/></g></svg>